<svg width="550" height="245" viewBox="0 0 550 245" fill="none" xmlns="http://www.w3.org/2000/svg">
<mask id="mask0_48_3418" style="mask-type:alpha" maskUnits="userSpaceOnUse" x="0" y="0" width="550" height="245">
<path d="M0 0H550V213C550 228.085 550 235.627 545.314 240.314C540.627 245 533.085 245 518 245H32C16.9151 245 9.37258 245 4.68629 240.314C0 235.627 0 228.085 0 213V0Z" fill="#F2F5F5"/>
</mask>
<g mask="url(#mask0_48_3418)">
<g filter="url(#filter0_d_48_3418)">
<rect width="550" height="245" rx="16" fill="#DCF8F8"/>
</g>
<rect width="26.6259" height="7.65422" rx="3.82711" transform="matrix(1 0.000122849 0.013767 0.999907 114.705 49.1506)" fill="#DDDDDD"/>
<g filter="url(#filter1_d_48_3418)">
<rect width="126.802" height="234.148" rx="12.5354" transform="matrix(1 6.74618e-05 0.0140113 0.999905 64.4899 43)" fill="white"/>
</g>
<rect width="50.9789" height="24.2572" rx="2.19864" transform="matrix(1.00002 0.00103111 0.0127815 0.999904 75.1212 203.869)" fill="#F2F5F5"/>
<rect width="33.5941" height="2.63874" rx="1.31937" transform="matrix(1.00001 0.000871492 0.0126143 0.999904 75.4604 231.278)" fill="#E1EBEB"/>
<rect width="50.9922" height="2.63907" rx="1.31953" transform="matrix(1.00001 0.000842556 0.012584 0.999904 75.5331 237.073)" fill="#E1EBEB"/>
<rect width="41.9932" height="2.63893" rx="1.31946" transform="matrix(1.00001 0.000855151 0.0125972 0.999904 75.6055 242.869)" fill="#E1EBEB"/>
<rect width="50.9789" height="24.2572" rx="2.19864" transform="matrix(1.00002 0.00103117 0.0127816 0.999904 134.516 203.915)" fill="#F2F5F5"/>
<rect width="33.5941" height="2.63874" rx="1.31937" transform="matrix(1.00001 0.000871464 0.0126142 0.999904 134.855 231.324)" fill="#E1EBEB"/>
<rect width="50.9922" height="2.63907" rx="1.31954" transform="matrix(1.00001 0.000842339 0.0125838 0.999904 134.928 237.119)" fill="#E1EBEB"/>
<rect width="41.9932" height="2.63893" rx="1.31946" transform="matrix(1.00001 0.000855151 0.0125972 0.999904 135 242.914)" fill="#E1EBEB"/>
<rect width="38.6592" height="6.3305" rx="3.16525" transform="matrix(1.00001 0.000924117 0.0126694 0.999904 73.6163 83.7551)" fill="#E1EBEB"/>
<rect opacity="0.5" width="59.9993" height="8.00013" rx="4.00007" transform="matrix(1.00001 0 0.0126148 0.999904 98.8934 62.9999)" fill="#B6C5C5"/>
<rect width="110.334" height="100.694" rx="5.49659" transform="matrix(1.00002 0.00105545 0.012807 0.999904 73.784 96.363)" fill="#F2F5F5"/>
<rect width="10.084" height="3.1646" rx="1.5823" transform="matrix(1.00002 0.000999835 0.0127487 0.999904 83.3053 186.503)" fill="#E27A7A"/>
<rect width="10.084" height="3.1646" rx="1.5823" transform="matrix(1.00002 0.000999922 0.0127488 0.999904 163.996 186.564)" fill="#AEE27A"/>
<rect width="63.3141" height="5.80494" rx="2.90247" transform="matrix(1.00001 0.000884132 0.0126276 0.999904 80.6306 106.941)" fill="#E1EBEB"/>
<rect width="96.9376" height="2.63943" rx="1.31971" transform="matrix(1.00001 0.0008108 0.0125508 0.999904 80.7484 116.427)" fill="#E1EBEB"/>
<rect width="96.9376" height="2.63943" rx="1.31971" transform="matrix(1.00001 0.00081093 0.0125509 0.999904 80.9593 133.287)" fill="#E1EBEB"/>
<rect width="69.4806" height="2.63927" rx="1.31963" transform="matrix(1.00001 0.000825376 0.012566 0.999904 81.17 150.146)" fill="#E1EBEB"/>
<rect width="69.4806" height="2.63927" rx="1.31963" transform="matrix(1.00001 0.000825478 0.0125662 0.999904 81.3809 167.006)" fill="#E1EBEB"/>
<rect width="80.1272" height="2.63934" rx="1.31967" transform="matrix(1.00001 0.000818753 0.0125591 0.999904 80.8537 124.858)" fill="#E1EBEB"/>
<rect width="85.1703" height="2.63937" rx="1.31969" transform="matrix(1.00001 0.000816092 0.0125564 0.999904 81.0646 141.717)" fill="#E1EBEB"/>
<rect width="89.0928" height="2.63939" rx="1.3197" transform="matrix(1.00001 0.000814213 0.0125543 0.999904 81.2755 158.576)" fill="#E1EBEB"/>
<rect width="80.1272" height="2.63934" rx="1.31967" transform="matrix(1.00001 0.000818667 0.012559 0.999904 81.4863 175.436)" fill="#E1EBEB"/>
<rect width="26.6102" height="7.65293" rx="3.82647" transform="matrix(1 -1.65915e-09 0.012977 0.999916 260.169 -2.87805)" fill="#DDDDDD"/>
<g clip-path="url(#clip0_48_3418)">
<g filter="url(#filter2_d_48_3418)">
<rect width="126.79" height="234.18" rx="14.837" transform="matrix(1 0 0.012977 0.999916 210 -9)" fill="white"/>
</g>
</g>
<rect width="50.9586" height="24.2476" rx="2.15618" transform="matrix(1.00001 0.00091675 0.0116981 0.999915 219.133 58.0842)" fill="#F2F5F5"/>
<rect width="33.5727" height="2.6356" rx="1.3178" transform="matrix(1.00001 0.000916751 0.0116981 0.999915 219.454 85.4922)" fill="#F2F5F5"/>
<rect width="50.9586" height="2.6356" rx="1.3178" transform="matrix(1.00001 0.000916751 0.0116981 0.999915 219.522 91.2903)" fill="#F2F5F5"/>
<rect width="41.9659" height="2.6356" rx="1.3178" transform="matrix(1.00001 0.000916751 0.0116981 0.999915 219.589 97.088)" fill="#F2F5F5"/>
<rect width="50.9586" height="24.2476" rx="2.15618" transform="matrix(1.00001 0.00091675 0.0116981 0.999915 278.486 58.1387)" fill="#F2F5F5"/>
<rect width="33.5727" height="2.6356" rx="1.3178" transform="matrix(1.00001 0.000916751 0.0116981 0.999915 278.806 85.5466)" fill="#F2F5F5"/>
<rect width="50.9586" height="2.6356" rx="1.3178" transform="matrix(1.00001 0.000916751 0.0116981 0.999915 278.874 91.3444)" fill="#F2F5F5"/>
<rect width="41.9659" height="2.6356" rx="1.3178" transform="matrix(1.00001 0.000916751 0.0116981 0.999915 278.942 97.1421)" fill="#F2F5F5"/>
<rect width="50.9586" height="24.2476" rx="2.15618" transform="matrix(1.00001 0.00091675 0.0116981 0.999915 219.133 112.762)" fill="#F2F5F5"/>
<rect width="33.5727" height="2.6356" rx="1.3178" transform="matrix(1.00001 0.000916751 0.0116981 0.999915 219.454 140.17)" fill="#F2F5F5"/>
<rect width="50.9586" height="2.6356" rx="1.3178" transform="matrix(1.00001 0.000916751 0.0116981 0.999915 219.521 145.968)" fill="#F2F5F5"/>
<rect width="41.9659" height="2.6356" rx="1.3178" transform="matrix(1.00001 0.000916751 0.0116981 0.999915 219.589 151.766)" fill="#F2F5F5"/>
<rect width="50.9586" height="24.2476" rx="2.15618" transform="matrix(1.00001 0.00091675 0.0116981 0.999915 278.486 112.816)" fill="#F2F5F5"/>
<rect width="33.5727" height="2.6356" rx="1.3178" transform="matrix(1.00001 0.000916751 0.0116981 0.999915 278.806 140.224)" fill="#F2F5F5"/>
<rect width="50.9586" height="2.6356" rx="1.3178" transform="matrix(1.00001 0.000916751 0.0116981 0.999915 278.874 146.022)" fill="#F2F5F5"/>
<rect width="41.9659" height="2.6356" rx="1.3178" transform="matrix(1.00001 0.000916751 0.0116981 0.999915 278.942 151.82)" fill="#F2F5F5"/>
<rect width="50.9586" height="24.2476" rx="2.15618" transform="matrix(1.00001 0.00091675 0.0116981 0.999915 219.133 167.439)" fill="#F2F5F5"/>
<rect width="33.5727" height="2.6356" rx="1.3178" transform="matrix(1.00001 0.000916751 0.0116981 0.999915 219.454 194.847)" fill="#F2F5F5"/>
<rect width="50.9586" height="2.6356" rx="1.3178" transform="matrix(1.00001 0.000916751 0.0116981 0.999915 219.521 200.645)" fill="#F2F5F5"/>
<rect width="41.9659" height="2.6356" rx="1.3178" transform="matrix(1.00001 0.000916751 0.0116981 0.999915 219.589 206.443)" fill="#F2F5F5"/>
<rect width="50.9586" height="24.2476" rx="2.15618" transform="matrix(1.00001 0.00091675 0.0116981 0.999915 278.486 167.494)" fill="#F2F5F5"/>
<rect width="33.5727" height="2.6356" rx="1.3178" transform="matrix(1.00001 0.000916751 0.0116981 0.999915 278.806 194.901)" fill="#F2F5F5"/>
<rect width="50.9586" height="2.6356" rx="1.3178" transform="matrix(1.00001 0.000916751 0.0116981 0.999915 278.874 200.699)" fill="#F2F5F5"/>
<rect width="41.9659" height="2.6356" rx="1.3178" transform="matrix(1.00001 0.000916751 0.0116981 0.999915 278.942 206.497)" fill="#F2F5F5"/>
<rect width="38.6367" height="6.32545" rx="3.16272" transform="matrix(1.00001 0.00091675 0.0116981 0.999915 219.089 42.7396)" fill="#F2F5F5"/>
<rect opacity="0.5" width="59.9993" height="8.00013" rx="4.00007" transform="matrix(1.00001 0 0.0126148 0.999904 243.893 22)" fill="#B6C5C5"/>
<rect width="26.6102" height="7.65293" rx="3.82647" transform="matrix(1 -1.65915e-09 0.012977 0.999916 405.68 49.1219)" fill="#DDDDDD"/>
<g filter="url(#filter3_d_48_3418)">
<rect width="126.79" height="234.18" rx="14.837" transform="matrix(1 0 0.012977 0.999916 355.51 43)" fill="white"/>
</g>
<rect width="50.9586" height="24.2476" rx="2.15618" transform="matrix(1.00001 0.00091675 0.0116981 0.999915 364.644 96.3892)" fill="#F2F5F5"/>
<rect width="33.5727" height="2.6356" rx="1.3178" transform="matrix(1.00001 0.000916751 0.0116981 0.999915 364.964 123.797)" fill="#F2F5F5"/>
<rect width="50.9586" height="2.6356" rx="1.3178" transform="matrix(1.00001 0.000916751 0.0116981 0.999915 365.032 129.595)" fill="#F2F5F5"/>
<rect width="41.9659" height="2.6356" rx="1.3178" transform="matrix(1.00001 0.000916751 0.0116981 0.999915 365.1 135.393)" fill="#F2F5F5"/>
<rect width="50.9586" height="24.2476" rx="2.15618" transform="matrix(1.00001 0.00091675 0.0116981 0.999915 423.996 96.4436)" fill="#F2F5F5"/>
<rect width="33.5727" height="2.6356" rx="1.3178" transform="matrix(1.00001 0.000916751 0.0116981 0.999915 424.317 123.852)" fill="#F2F5F5"/>
<rect width="50.9586" height="2.6356" rx="1.3178" transform="matrix(1.00001 0.000916751 0.0116981 0.999915 424.385 129.649)" fill="#F2F5F5"/>
<rect width="41.9659" height="2.6356" rx="1.3178" transform="matrix(1.00001 0.000916751 0.0116981 0.999915 424.452 135.447)" fill="#F2F5F5"/>
<rect width="38.6367" height="6.32545" rx="3.16272" transform="matrix(1.00001 0.00091675 0.0116981 0.999915 364.599 83.7395)" fill="#F2F5F5"/>
<rect opacity="0.5" width="59.9993" height="8.00013" rx="4.00007" transform="matrix(1.00001 0 0.0126148 0.999904 389.894 62.9999)" fill="#B6C5C5"/>
<rect width="110.31" height="100.68" rx="5.39044" transform="matrix(1.00001 0.00091675 0.0116981 0.999915 365.183 145.137)" fill="#F2F5F5"/>
<rect width="10.0791" height="3.16272" rx="1.58136" transform="matrix(1.00001 0.000916751 0.0116981 0.999915 374.636 235.275)" fill="#6ACFE6"/>
<rect width="10.0791" height="3.16272" rx="1.58136" transform="matrix(1.00001 0.000916751 0.0116981 0.999915 455.27 235.349)" fill="#A0E15F"/>
<rect width="63.2745" height="5.79833" rx="2.89916" transform="matrix(1.00001 0.000916751 0.0116981 0.999915 372.025 155.685)" fill="#E1EBEB"/>
<rect width="96.8716" height="2.6356" rx="1.3178" transform="matrix(1.00001 0.000916751 0.0116981 0.999915 372.136 165.172)" fill="#E1EBEB"/>
<rect width="96.8716" height="2.6356" rx="1.3178" transform="matrix(1.00001 0.000916751 0.0116981 0.999915 372.334 182.038)" fill="#E1EBEB"/>
<rect width="69.434" height="2.6356" rx="1.3178" transform="matrix(1.00001 0.000916751 0.0116981 0.999915 372.531 198.905)" fill="#E1EBEB"/>
<rect width="69.434" height="2.6356" rx="1.3178" transform="matrix(1.00001 0.000916751 0.0116981 0.999915 372.728 215.771)" fill="#E1EBEB"/>
<rect width="80.0731" height="2.6356" rx="1.3178" transform="matrix(1.00001 0.000916751 0.0116981 0.999915 372.235 173.605)" fill="#E1EBEB"/>
<rect width="85.1126" height="2.6356" rx="1.3178" transform="matrix(1.00001 0.000916751 0.0116981 0.999915 372.432 190.472)" fill="#E1EBEB"/>
<rect width="89.0323" height="2.6356" rx="1.3178" transform="matrix(1.00001 0.000916751 0.0116981 0.999915 372.63 207.338)" fill="#E1EBEB"/>
<rect width="80.0731" height="2.6356" rx="1.3178" transform="matrix(1.00001 0.000916751 0.0116981 0.999915 372.827 224.205)" fill="#E1EBEB"/>
</g>
<defs>
<filter id="filter0_d_48_3418" x="-55" y="-50" width="670" height="365" filterUnits="userSpaceOnUse" color-interpolation-filters="sRGB">
<feFlood flood-opacity="0" result="BackgroundImageFix"/>
<feColorMatrix in="SourceAlpha" type="matrix" values="0 0 0 0 0 0 0 0 0 0 0 0 0 0 0 0 0 0 127 0" result="hardAlpha"/>
<feOffset dx="5" dy="10"/>
<feGaussianBlur stdDeviation="30"/>
<feComposite in2="hardAlpha" operator="out"/>
<feColorMatrix type="matrix" values="0 0 0 0 0.0470588 0 0 0 0 0.0901961 0 0 0 0 0.0901961 0 0 0 0.1 0"/>
<feBlend mode="normal" in2="BackgroundImageFix" result="effect1_dropShadow_48_3418"/>
<feBlend mode="normal" in="SourceGraphic" in2="effect1_dropShadow_48_3418" result="shape"/>
</filter>
<filter id="filter1_d_48_3418" x="42.6779" y="4.52471" width="184.7" height="289.098" filterUnits="userSpaceOnUse" color-interpolation-filters="sRGB">
<feFlood flood-opacity="0" result="BackgroundImageFix"/>
<feColorMatrix in="SourceAlpha" type="matrix" values="0 0 0 0 0 0 0 0 0 0 0 0 0 0 0 0 0 0 127 0" result="hardAlpha"/>
<feOffset dx="5.49659" dy="-10.9932"/>
<feGaussianBlur stdDeviation="13.7415"/>
<feComposite in2="hardAlpha" operator="out"/>
<feColorMatrix type="matrix" values="0 0 0 0 0.0470588 0 0 0 0 0.0901961 0 0 0 0 0.0901961 0 0 0 0.1 0"/>
<feBlend mode="normal" in2="BackgroundImageFix" result="effect1_dropShadow_48_3418"/>
<feBlend mode="normal" in="SourceGraphic" in2="effect1_dropShadow_48_3418" result="shape"/>
</filter>
<filter id="filter2_d_48_3418" x="199.41" y="-33.796" width="161.789" height="266.503" filterUnits="userSpaceOnUse" color-interpolation-filters="sRGB">
<feFlood flood-opacity="0" result="BackgroundImageFix"/>
<feColorMatrix in="SourceAlpha" type="matrix" values="0 0 0 0 0 0 0 0 0 0 0 0 0 0 0 0 0 0 127 0" result="hardAlpha"/>
<feOffset dx="5.39044" dy="-8.6247"/>
<feGaussianBlur stdDeviation="8.08566"/>
<feComposite in2="hardAlpha" operator="out"/>
<feColorMatrix type="matrix" values="0 0 0 0 0.0470588 0 0 0 0 0.0901961 0 0 0 0 0.0901961 0 0 0 0.05 0"/>
<feBlend mode="normal" in2="BackgroundImageFix" result="effect1_dropShadow_48_3418"/>
<feBlend mode="normal" in="SourceGraphic" in2="effect1_dropShadow_48_3418" result="shape"/>
</filter>
<filter id="filter3_d_48_3418" x="344.921" y="18.204" width="161.789" height="266.503" filterUnits="userSpaceOnUse" color-interpolation-filters="sRGB">
<feFlood flood-opacity="0" result="BackgroundImageFix"/>
<feColorMatrix in="SourceAlpha" type="matrix" values="0 0 0 0 0 0 0 0 0 0 0 0 0 0 0 0 0 0 127 0" result="hardAlpha"/>
<feOffset dx="5.39044" dy="-8.6247"/>
<feGaussianBlur stdDeviation="8.08566"/>
<feComposite in2="hardAlpha" operator="out"/>
<feColorMatrix type="matrix" values="0 0 0 0 0.0470588 0 0 0 0 0.0901961 0 0 0 0 0.0901961 0 0 0 0.05 0"/>
<feBlend mode="normal" in2="BackgroundImageFix" result="effect1_dropShadow_48_3418"/>
<feBlend mode="normal" in="SourceGraphic" in2="effect1_dropShadow_48_3418" result="shape"/>
</filter>
<clipPath id="clip0_48_3418">
<rect width="126.79" height="225.179" fill="white" transform="matrix(1 0 0.012977 0.999916 210.117 0)"/>
</clipPath>
</defs>
</svg>
