<svg width="180" height="36" viewBox="0 0 180 36" fill="none" xmlns="http://www.w3.org/2000/svg">
<rect x="0.400024" y="1.7998" width="32.4" height="32.4" rx="14.4" fill="#6ACFE6"/>
<path d="M10.75 14.0753L10.75 21.9247C10.75 25.2736 13.4102 27.45 16.6 27.45C19.7874 27.45 22.45 25.2737 22.45 21.9247L22.45 14.0753C22.45 10.7262 19.785 8.55 16.6 8.55C13.4101 8.55 10.75 10.7264 10.75 14.0753ZM19.7884 14.0753L19.7884 21.9247C19.7884 22.8286 19.4369 23.5192 18.8819 23.9906C18.3191 24.4687 17.5187 24.7438 16.6 24.7438C15.6803 24.7438 14.8786 24.4681 14.3149 23.9896C13.7588 23.5176 13.407 22.827 13.407 21.9247L13.407 14.0753C13.407 13.1717 13.7589 12.4811 14.3148 12.0096C14.8784 11.5314 15.68 11.2562 16.6 11.2562C17.5185 11.2562 18.3189 11.5318 18.8818 12.0102C19.437 12.4821 19.7884 13.1728 19.7884 14.0753Z" fill="#0C1717" stroke="#0C1717" stroke-width="0.9"/>
<path d="M53.05 28.27C47.416 28.27 44.599 25.309 44.599 19.387C44.599 16.201 45.31 13.897 46.732 12.475C48.154 11.053 50.26 10.342 53.05 10.342C55.84 10.342 57.946 11.053 59.368 12.475C60.79 13.897 61.501 16.201 61.501 19.387C61.501 25.309 58.684 28.27 53.05 28.27ZM53.05 25.165C54.688 25.165 55.885 24.697 56.641 23.761C57.415 22.807 57.802 21.349 57.802 19.387C57.802 17.209 57.415 15.679 56.641 14.797C55.885 13.897 54.688 13.447 53.05 13.447C51.412 13.447 50.206 13.897 49.432 14.797C48.676 15.679 48.298 17.209 48.298 19.387C48.298 21.349 48.676 22.807 49.432 23.761C50.206 24.697 51.412 25.165 53.05 25.165ZM64.0443 28V15.202H67.4193L67.5813 16.525C68.1573 16.165 68.8683 15.841 69.7143 15.553C70.5783 15.247 71.4243 15.04 72.2523 14.932V17.686C71.7663 17.758 71.2353 17.866 70.6593 18.01C70.0833 18.154 69.5343 18.316 69.0123 18.496C68.4903 18.676 68.0493 18.865 67.6893 19.063V28H64.0443ZM75.0076 12.853V9.991H78.9766V12.853H75.0076ZM75.3046 28V17.902H73.3876L73.7116 15.202H78.9496V28H75.3046ZM87.4531 32.752C86.4991 32.752 85.5181 32.689 84.5101 32.563C83.5201 32.437 82.6831 32.257 81.9991 32.023V29.296C82.7191 29.53 83.5651 29.71 84.5371 29.836C85.5091 29.98 86.4181 30.052 87.2641 30.052C88.5061 30.052 89.4061 29.98 89.9641 29.836C90.5221 29.71 90.8011 29.476 90.8011 29.134C90.8011 28.846 90.6751 28.648 90.4231 28.54C90.1891 28.432 89.6851 28.378 88.9111 28.378H85.4281C83.1421 28.378 81.9991 27.532 81.9991 25.84C81.9991 25.318 82.1431 24.841 82.4311 24.409C82.7191 23.977 83.1781 23.635 83.8081 23.383C82.3501 22.645 81.6211 21.403 81.6211 19.657C81.6211 18.001 82.1341 16.804 83.1601 16.066C84.1861 15.31 85.7071 14.932 87.7231 14.932C88.1371 14.932 88.5871 14.968 89.0731 15.04C89.5771 15.094 89.9551 15.148 90.2071 15.202H95.0131L94.9321 17.497H92.9071C93.4651 18.019 93.7441 18.748 93.7441 19.684C93.7441 20.998 93.3301 22.051 92.5021 22.843C91.6741 23.617 90.4501 24.004 88.8301 24.004C88.5421 24.004 88.2631 23.995 87.9931 23.977C87.7411 23.941 87.4801 23.905 87.2101 23.869C86.6701 23.941 86.2111 24.067 85.8331 24.247C85.4731 24.427 85.2931 24.67 85.2931 24.976C85.2931 25.39 85.6621 25.597 86.4001 25.597H90.0181C91.3141 25.597 92.3131 25.894 93.0151 26.488C93.7171 27.064 94.0681 27.91 94.0681 29.026C94.0681 30.286 93.5011 31.222 92.3671 31.834C91.2331 32.446 89.5951 32.752 87.4531 32.752ZM87.7501 21.952C88.8301 21.952 89.5771 21.772 89.9911 21.412C90.4231 21.034 90.6391 20.404 90.6391 19.522C90.6391 18.64 90.4231 18.001 89.9911 17.605C89.5771 17.209 88.8301 17.011 87.7501 17.011C86.7241 17.011 85.9861 17.209 85.5361 17.605C85.0861 17.983 84.8611 18.622 84.8611 19.522C84.8611 20.35 85.0681 20.962 85.4821 21.358C85.9141 21.754 86.6701 21.952 87.7501 21.952ZM97.4197 12.853V9.991H101.389V12.853H97.4197ZM97.7167 28V17.902H95.7997L96.1237 15.202H101.362V28H97.7167ZM104.465 28V15.202H107.84L107.975 16.417C108.497 16.021 109.154 15.679 109.946 15.391C110.756 15.085 111.602 14.932 112.484 14.932C114.176 14.932 115.409 15.328 116.183 16.12C116.957 16.912 117.344 18.136 117.344 19.792V28H113.699V19.981C113.699 19.117 113.519 18.505 113.159 18.145C112.817 17.785 112.169 17.605 111.215 17.605C110.657 17.605 110.09 17.731 109.514 17.983C108.956 18.235 108.488 18.55 108.11 18.928V28H104.465ZM120.312 28V10.612H123.957V25.192H132.516V28H120.312ZM139.357 28.27C138.547 28.27 137.791 28.126 137.089 27.838C136.405 27.532 135.847 27.091 135.415 26.515C135.001 25.921 134.794 25.183 134.794 24.301C134.794 23.041 135.235 22.033 136.117 21.277C137.017 20.521 138.34 20.143 140.086 20.143H143.866V19.792C143.866 19 143.641 18.442 143.191 18.118C142.759 17.794 141.877 17.632 140.545 17.632C139.087 17.632 137.683 17.857 136.333 18.307V15.742C136.927 15.508 137.647 15.319 138.493 15.175C139.357 15.013 140.293 14.932 141.301 14.932C143.227 14.932 144.712 15.328 145.756 16.12C146.818 16.894 147.349 18.145 147.349 19.873V28H144.19L144.001 26.839C143.497 27.289 142.876 27.64 142.138 27.892C141.4 28.144 140.473 28.27 139.357 28.27ZM140.356 25.867C141.166 25.867 141.868 25.732 142.462 25.462C143.056 25.192 143.524 24.85 143.866 24.436V22.411H140.167C138.745 22.411 138.034 22.996 138.034 24.166C138.034 25.3 138.808 25.867 140.356 25.867ZM158.627 28.27C157.727 28.27 156.944 28.153 156.278 27.919C155.612 27.667 155 27.298 154.442 26.812L154.253 28H151.094V9.802H154.739V15.904C155.261 15.58 155.846 15.337 156.494 15.175C157.142 15.013 157.817 14.932 158.519 14.932C160.355 14.932 161.804 15.454 162.866 16.498C163.946 17.524 164.486 19.189 164.486 21.493C164.486 23.797 163.955 25.507 162.893 26.623C161.849 27.721 160.427 28.27 158.627 28.27ZM157.601 25.597C158.771 25.597 159.59 25.255 160.058 24.571C160.544 23.887 160.787 22.861 160.787 21.493C160.787 20.071 160.526 19.072 160.004 18.496C159.5 17.902 158.69 17.605 157.574 17.605C157.016 17.605 156.485 17.686 155.981 17.848C155.495 18.01 155.081 18.244 154.739 18.55V24.436C155.099 24.814 155.522 25.102 156.008 25.3C156.512 25.498 157.043 25.597 157.601 25.597ZM172.207 28.27C171.253 28.27 170.344 28.198 169.48 28.054C168.616 27.928 167.923 27.766 167.401 27.568V24.544C168.031 24.796 168.742 24.994 169.534 25.138C170.326 25.264 171.055 25.327 171.721 25.327C172.621 25.327 173.251 25.273 173.611 25.165C173.989 25.057 174.178 24.814 174.178 24.436C174.178 24.004 173.89 23.689 173.314 23.491C172.756 23.293 171.919 23.014 170.803 22.654C169.633 22.258 168.733 21.781 168.103 21.223C167.473 20.665 167.158 19.837 167.158 18.739C167.158 17.515 167.599 16.579 168.481 15.931C169.381 15.265 170.821 14.932 172.801 14.932C173.593 14.932 174.34 14.995 175.042 15.121C175.744 15.229 176.338 15.364 176.824 15.526V18.523C176.338 18.289 175.78 18.118 175.15 18.01C174.52 17.884 173.935 17.821 173.395 17.821C172.621 17.821 172 17.875 171.532 17.983C171.082 18.091 170.857 18.325 170.857 18.685C170.857 19.081 171.1 19.36 171.586 19.522C172.09 19.684 172.864 19.927 173.908 20.251C174.934 20.557 175.735 20.89 176.311 21.25C176.887 21.61 177.292 22.042 177.526 22.546C177.76 23.032 177.877 23.644 177.877 24.382C177.877 26.974 175.987 28.27 172.207 28.27Z" fill="#0C1717"/>
</svg>
