<svg width="24" height="24" viewBox="0 0 24 24" fill="none" xmlns="http://www.w3.org/2000/svg">
<g clip-path="url(#clip0_44_2151)">
<path d="M17.3766 0H6.62295C2.97106 0 0 2.9712 0 6.62309V17.3768C0 21.0288 2.97106 23.9999 6.62295 23.9999H17.3766C21.0288 23.9999 23.9999 21.0287 23.9999 17.3768V6.62309C24 2.9712 21.0288 0 17.3766 0ZM21.8706 17.3768C21.8706 19.8547 19.8547 21.8705 17.3768 21.8705H6.62295C4.1452 21.8706 2.12938 19.8547 2.12938 17.3768V6.62309C2.12938 4.14534 4.1452 2.12938 6.62295 2.12938H17.3766C19.8545 2.12938 21.8705 4.14534 21.8705 6.62309V17.3768H21.8706Z" fill="#0C1717"/>
<path d="M11.9999 5.81641C8.58992 5.81641 5.81576 8.59057 5.81576 12.0006C5.81576 15.4104 8.58992 18.1844 11.9999 18.1844C15.4099 18.1844 18.1841 15.4104 18.1841 12.0006C18.1841 8.59057 15.4099 5.81641 11.9999 5.81641ZM11.9999 16.0549C9.7642 16.0549 7.94514 14.2361 7.94514 12.0004C7.94514 9.76457 9.76406 7.94565 11.9999 7.94565C14.2358 7.94565 16.0547 9.76457 16.0547 12.0004C16.0547 14.2361 14.2356 16.0549 11.9999 16.0549Z" fill="#0C1717"/>
<path d="M18.4431 4.01172C18.0328 4.01172 17.6298 4.17781 17.34 4.46883C17.0489 4.75842 16.8815 5.16159 16.8815 5.57327C16.8815 5.98367 17.049 6.38669 17.34 6.67771C17.6296 6.9673 18.0328 7.13481 18.4431 7.13481C18.8547 7.13481 19.2565 6.9673 19.5475 6.67771C19.8385 6.38669 20.0046 5.98353 20.0046 5.57327C20.0046 5.16159 19.8385 4.75842 19.5475 4.46883C19.2579 4.17781 18.8547 4.01172 18.4431 4.01172Z" fill="#0C1717"/>
</g>
<defs>
<clipPath id="clip0_44_2151">
<rect width="24" height="24" fill="white"/>
</clipPath>
</defs>
</svg>
