<svg width="24" height="24" viewBox="0 0 24 24" fill="none" xmlns="http://www.w3.org/2000/svg">
<g clip-path="url(#clip0_44_2156)">
<path d="M2.27964 5.64844C1.62657 5.64844 1.09711 6.1779 1.09711 6.83097V22.8186C1.09711 23.4717 1.62657 24.0011 2.27964 24.0011C2.93272 24.0011 3.46217 23.4717 3.46217 22.8186V6.83097C3.46217 6.17774 2.93272 5.64844 2.27964 5.64844Z" fill="#0C1717"/>
<path d="M10.7229 18.1406C10.0698 18.1406 9.54037 18.6701 9.54037 19.3232V22.8175C9.54037 23.4705 10.0698 24 10.7229 24C11.376 24 11.9054 23.4705 11.9054 22.8175V19.3232C11.9054 18.6701 11.376 18.1406 10.7229 18.1406Z" fill="#0C1717"/>
<path d="M16.2216 6.92131C14.5773 6.92131 13.0709 7.51952 11.9055 8.50827V6.83097C11.9055 6.1779 11.3761 5.64844 10.723 5.64844C10.0699 5.64844 9.54047 6.1779 9.54047 6.83097V13.6009C9.54047 13.601 9.54047 13.6012 9.54047 13.6013C9.54047 13.6017 9.54047 13.6018 9.54047 13.6023C9.54047 14.2554 10.0699 14.7848 10.723 14.7848C11.3761 14.7848 11.9055 14.2554 11.9055 13.6023C11.9055 11.2224 13.8417 9.28637 16.2216 9.28637C18.6013 9.28637 20.5374 11.2224 20.5374 13.6023V22.8186C20.5374 23.4717 21.0668 24.0011 21.7199 24.0011C22.3731 24.0011 22.9024 23.4717 22.9024 22.8186V13.6023C22.9024 9.91832 19.9056 6.92131 16.2216 6.92131Z" fill="#0C1717"/>
<path d="M2.27954 2.36506C2.59015 2.36506 2.89603 2.23892 3.11677 2.01976C3.33593 1.79902 3.46207 1.49472 3.46207 1.18411C3.46207 0.871919 3.33593 0.567614 3.11677 0.346875C2.89603 0.127713 2.59015 0 2.27954 0C1.96892 0 1.66462 0.127713 1.44388 0.346875C1.22314 0.567614 1.09701 0.871919 1.09701 1.18411C1.09701 1.49472 1.22314 1.79902 1.44388 2.01976C1.66462 2.23892 1.96892 2.36506 2.27954 2.36506Z" fill="#0C1717"/>
</g>
<defs>
<clipPath id="clip0_44_2156">
<rect width="24" height="24" fill="white"/>
</clipPath>
</defs>
</svg>
