<svg width="24" height="24" viewBox="0 0 24 24" fill="none" xmlns="http://www.w3.org/2000/svg">
<g clip-path="url(#clip0_44_2162)">
<path d="M11.9999 0C5.38319 0 0 5.38319 0 12C0 15.0613 1.15296 17.9764 3.2463 20.2082C3.61033 20.5962 4.21982 20.6157 4.60799 20.2517C4.99604 19.8877 5.01556 19.2781 4.65154 18.89C2.89448 17.0167 1.92674 14.5698 1.92674 12C1.92674 6.44559 6.44559 1.92674 11.9999 1.92674C17.5543 1.92674 22.0733 6.44559 22.0733 12C22.0733 17.5544 17.5543 22.0733 11.9999 22.0733C11.0152 22.0733 10.0499 21.9331 9.12004 21.6559L10.1054 17.8045C10.715 17.9532 11.344 18.0289 11.9861 18.0289C16.0333 18.0289 19.326 14.9906 19.326 11.256C19.326 7.52135 16.0333 4.48288 11.9861 4.48288C7.93894 4.48288 4.64627 7.52135 4.64627 11.256C4.64627 12.6018 5.07272 13.9022 5.87964 15.0166C6.19165 15.4476 6.79408 15.544 7.22489 15.2319C7.65584 14.9199 7.75218 14.3176 7.44018 13.8867C6.87281 13.103 6.57301 12.1934 6.57301 11.256C6.57301 8.58376 9.00135 6.40963 11.9861 6.40963C14.9709 6.40963 17.3992 8.58376 17.3992 11.256C17.3992 13.9282 14.971 16.1022 11.9861 16.1022C11.5065 16.1022 11.037 16.0472 10.5829 15.9381L11.9315 10.6667C12.0633 10.1512 11.7524 9.62651 11.237 9.49459C10.7215 9.36268 10.1968 9.67365 10.0649 10.1891L7.03363 22.0377C6.91315 22.5086 7.16247 22.9955 7.61474 23.1732C9.01175 23.7218 10.4873 24 11.9999 24C18.6168 24 24 18.6168 24 12C24 5.38319 18.6168 0 11.9999 0Z" fill="#0C1717"/>
</g>
<defs>
<clipPath id="clip0_44_2162">
<rect width="24" height="24" fill="white"/>
</clipPath>
</defs>
</svg>
