<svg width="100" height="24" viewBox="0 0 100 24" fill="none" xmlns="http://www.w3.org/2000/svg">
<g clip-path="url(#clip0_38_2638)">
<path d="M19.152 0H4.848C2.169 0 0 2.169 0 4.848V19.155C0 21.831 2.169 24 4.848 24H19.155C21.831 24 24.003 21.831 24.003 19.152V4.848C24 2.169 21.831 0 19.152 0Z" fill="url(#paint0_linear_38_2638)"/>
<path d="M11.898 5.51385L12.384 4.67385C12.684 4.14885 13.353 3.97185 13.878 4.27185C14.403 4.57185 14.58 5.24085 14.28 5.76585L9.597 13.8718H12.984C14.082 13.8718 14.697 15.1618 14.22 16.0558H4.29C3.684 16.0558 3.198 15.5698 3.198 14.9638C3.198 14.3578 3.684 13.8718 4.29 13.8718H7.074L10.638 7.69485L9.525 5.76285C9.225 5.23785 9.402 4.57485 9.927 4.26885C10.452 3.96885 11.115 4.14585 11.421 4.67085L11.898 5.51385ZM7.686 17.1808L6.636 19.0019C6.336 19.5268 5.667 19.7038 5.142 19.4038C4.617 19.1038 4.44 18.4348 4.74 17.9098L5.52 16.5598C6.402 16.2868 7.119 16.4968 7.686 17.1808ZM16.728 13.8778H19.569C20.175 13.8778 20.661 14.3638 20.661 14.9698C20.661 15.5758 20.175 16.0618 19.569 16.0618H17.991L19.056 17.9098C19.356 18.4348 19.179 19.0978 18.654 19.4038C18.129 19.7038 17.466 19.5268 17.16 19.0019C15.366 15.8909 14.019 13.5628 13.125 12.0118C12.21 10.4338 12.864 8.84985 13.509 8.31285C14.226 9.54285 15.297 11.3998 16.728 13.8778Z" fill="white"/>
</g>
<path d="M37.8164 16.5H36.2695L39.0859 8.5H40.875L43.6953 16.5H42.1484L40.0117 10.1406H39.9492L37.8164 16.5ZM37.8672 13.3633H42.0859V14.5273H37.8672V13.3633ZM45.079 16.5V8.5H48.079C48.6936 8.5 49.2092 8.61458 49.6259 8.84375C50.0452 9.07292 50.3616 9.38802 50.5751 9.78906C50.7913 10.1875 50.8993 10.6406 50.8993 11.1484C50.8993 11.6615 50.7913 12.1172 50.5751 12.5156C50.359 12.9141 50.04 13.2279 49.6181 13.457C49.1962 13.6836 48.6767 13.7969 48.0595 13.7969H46.0712V12.6055H47.8642C48.2236 12.6055 48.5178 12.543 48.747 12.418C48.9762 12.293 49.1454 12.1211 49.2548 11.9023C49.3668 11.6836 49.4228 11.4323 49.4228 11.1484C49.4228 10.8646 49.3668 10.6146 49.2548 10.3984C49.1454 10.1823 48.9749 10.0143 48.7431 9.89453C48.5139 9.77214 48.2183 9.71094 47.8564 9.71094H46.5282V16.5H45.079ZM52.4881 16.5V8.5H55.4881C56.1027 8.5 56.6183 8.61458 57.035 8.84375C57.4543 9.07292 57.7707 9.38802 57.9842 9.78906C58.2004 10.1875 58.3084 10.6406 58.3084 11.1484C58.3084 11.6615 58.2004 12.1172 57.9842 12.5156C57.7681 12.9141 57.4491 13.2279 57.0272 13.457C56.6053 13.6836 56.0858 13.7969 55.4686 13.7969H53.4803V12.6055H55.2733C55.6327 12.6055 55.9269 12.543 56.1561 12.418C56.3853 12.293 56.5545 12.1211 56.6639 11.9023C56.7759 11.6836 56.8319 11.4323 56.8319 11.1484C56.8319 10.8646 56.7759 10.6146 56.6639 10.3984C56.5545 10.1823 56.384 10.0143 56.1522 9.89453C55.923 9.77214 55.6274 9.71094 55.2655 9.71094H53.9373V16.5H52.4881ZM67.3034 10.6992C67.2669 10.3581 67.1133 10.0924 66.8425 9.90234C66.5742 9.71224 66.2253 9.61719 65.7956 9.61719C65.4935 9.61719 65.2344 9.66276 65.0182 9.75391C64.8021 9.84505 64.6367 9.96875 64.5221 10.125C64.4076 10.2812 64.349 10.4596 64.3464 10.6602C64.3464 10.8268 64.3841 10.9714 64.4596 11.0937C64.5378 11.2161 64.6432 11.3203 64.7761 11.4062C64.9089 11.4896 65.056 11.5599 65.2175 11.6172C65.3789 11.6745 65.5417 11.7227 65.7057 11.7617L66.4557 11.9492C66.7578 12.0195 67.0482 12.1146 67.3268 12.2344C67.6081 12.3542 67.8594 12.5052 68.0807 12.6875C68.3047 12.8698 68.4818 13.0898 68.612 13.3477C68.7422 13.6055 68.8073 13.9076 68.8073 14.2539C68.8073 14.7227 68.6875 15.1354 68.4479 15.4922C68.2083 15.8464 67.862 16.1237 67.4089 16.3242C66.9583 16.5221 66.4128 16.6211 65.7721 16.6211C65.1498 16.6211 64.6094 16.5247 64.1511 16.332C63.6953 16.1393 63.3386 15.8581 63.0807 15.4883C62.8255 15.1185 62.6875 14.668 62.6667 14.1367H64.0925C64.1133 14.4154 64.1992 14.6471 64.3503 14.832C64.5013 15.0169 64.6979 15.1549 64.9401 15.2461C65.1849 15.3372 65.4583 15.3828 65.7604 15.3828C66.0755 15.3828 66.3516 15.3359 66.5886 15.2422C66.8281 15.1458 67.0156 15.013 67.1511 14.8437C67.2865 14.6719 67.3555 14.4714 67.3581 14.2422C67.3555 14.0339 67.2943 13.862 67.1745 13.7266C67.0547 13.5885 66.8867 13.474 66.6706 13.3828C66.457 13.2891 66.207 13.2057 65.9206 13.1328L65.0104 12.8984C64.3516 12.7292 63.8307 12.4727 63.4479 12.1289C63.0677 11.7826 62.8776 11.3229 62.8776 10.75C62.8776 10.2786 63.0052 9.86589 63.2604 9.51172C63.5182 9.15755 63.8685 8.88281 64.3112 8.6875C64.7539 8.48958 65.2552 8.39062 65.8151 8.39062C66.3828 8.39062 66.8802 8.48958 67.3073 8.6875C67.737 8.88281 68.0742 9.15495 68.319 9.50391C68.5638 9.85026 68.6901 10.2487 68.6979 10.6992H67.3034ZM70.0777 9.71484V8.5H76.4605V9.71484H73.9879V16.5H72.5504V9.71484H70.0777ZM84.815 12.5C84.815 13.362 84.6535 14.1003 84.3306 14.7148C84.0103 15.3268 83.5728 15.7956 83.0181 16.1211C82.466 16.4466 81.8397 16.6094 81.1392 16.6094C80.4387 16.6094 79.8111 16.4466 79.2564 16.1211C78.7043 15.793 78.2668 15.3229 77.9439 14.7109C77.6236 14.0964 77.4634 13.3594 77.4634 12.5C77.4634 11.638 77.6236 10.901 77.9439 10.2891C78.2668 9.67448 78.7043 9.20443 79.2564 8.87891C79.8111 8.55339 80.4387 8.39062 81.1392 8.39062C81.8397 8.39062 82.466 8.55339 83.0181 8.87891C83.5728 9.20443 84.0103 9.67448 84.3306 10.2891C84.6535 10.901 84.815 11.638 84.815 12.5ZM83.3579 12.5C83.3579 11.8932 83.2629 11.3815 83.0728 10.9648C82.8853 10.5456 82.6249 10.2292 82.2915 10.0156C81.9582 9.79948 81.5741 9.69141 81.1392 9.69141C80.7043 9.69141 80.3202 9.79948 79.9868 10.0156C79.6535 10.2292 79.3918 10.5456 79.2017 10.9648C79.0142 11.3815 78.9204 11.8932 78.9204 12.5C78.9204 13.1068 79.0142 13.6198 79.2017 14.0391C79.3918 14.4557 79.6535 14.7721 79.9868 14.9883C80.3202 15.2018 80.7043 15.3086 81.1392 15.3086C81.5741 15.3086 81.9582 15.2018 82.2915 14.9883C82.6249 14.7721 82.8853 14.4557 83.0728 14.0391C83.2629 13.6198 83.3579 13.1068 83.3579 12.5ZM86.5151 16.5V8.5H89.5151C90.1297 8.5 90.6453 8.60677 91.062 8.82031C91.4812 9.03385 91.7976 9.33333 92.0112 9.71875C92.2273 10.1016 92.3354 10.5482 92.3354 11.0586C92.3354 11.5716 92.226 12.0169 92.0073 12.3945C91.7911 12.7695 91.4721 13.0599 91.0502 13.2656C90.6284 13.4687 90.1101 13.5703 89.4955 13.5703H87.3588V12.3672H89.3002C89.6596 12.3672 89.9539 12.3177 90.183 12.2187C90.4122 12.1172 90.5815 11.9701 90.6909 11.7773C90.8028 11.582 90.8588 11.3424 90.8588 11.0586C90.8588 10.7747 90.8028 10.5326 90.6909 10.332C90.5789 10.1289 90.4083 9.97526 90.1791 9.87109C89.95 9.76432 89.6544 9.71094 89.2924 9.71094H87.9643V16.5H86.5151ZM90.6479 12.875L92.6284 16.5H91.0112L89.0659 12.875H90.6479ZM93.9994 16.5V8.5H99.2025V9.71484H95.4486V11.8867H98.933V13.1016H95.4486V15.2852H99.2337V16.5H93.9994Z" fill="#384B4B"/>
<defs>
<linearGradient id="paint0_linear_38_2638" x1="12.0015" y1="0" x2="12.0015" y2="24" gradientUnits="userSpaceOnUse">
<stop stop-color="#18BFFB"/>
<stop offset="1" stop-color="#2072F3"/>
</linearGradient>
<clipPath id="clip0_38_2638">
<rect width="24" height="24" fill="white"/>
</clipPath>
</defs>
</svg>
