<svg width="107" height="24" viewBox="0 0 107 24" fill="none" xmlns="http://www.w3.org/2000/svg">
<g clip-path="url(#clip0_38_2711)">
<path d="M17.9237 8.23227C15.1356 6.67287 10.6607 4.16885 3.71984 0.282486C3.25189 -0.0265614 2.71348 -0.0670615 2.24829 0.090392L14.1569 11.999L17.9237 8.23227Z" fill="#32BBFF"/>
<path d="M2.24824 0.090332C2.16106 0.119863 2.07621 0.155488 1.99507 0.19852C1.48137 0.476395 1.10388 1.0111 1.10388 1.68737V22.3105C1.10388 22.9868 1.48132 23.5215 1.99507 23.7993C2.07607 23.8423 2.16087 23.8781 2.24796 23.9078L14.1569 11.9989L2.24824 0.090332Z" fill="#32BBFF"/>
<path d="M14.1568 11.999L2.24792 23.9079C2.71325 24.0665 3.25166 24.0291 3.71976 23.7155C10.4509 19.9463 14.8754 17.472 17.6957 15.8993C17.7742 15.8552 17.8511 15.8121 17.9271 15.7694L14.1568 11.999Z" fill="#32BBFF"/>
<path d="M1.10388 11.999V22.3106C1.10388 22.9869 1.48132 23.5216 1.99507 23.7994C2.07607 23.8424 2.16087 23.8782 2.24796 23.9079L14.1569 11.999H1.10388Z" fill="#2C9FD9"/>
<path d="M3.71972 0.282559C3.16401 -0.0843794 2.5087 -0.0739263 1.995 0.198699L13.976 12.1798L17.9235 8.23234C15.1355 6.67295 10.6606 4.16893 3.71972 0.282559Z" fill="#29CC5E"/>
<path d="M13.9761 11.8184L1.995 23.7994C2.50875 24.072 3.16401 24.0877 3.71972 23.7155C10.4509 19.9463 14.8753 17.472 17.6956 15.8993C17.7741 15.8552 17.8511 15.8121 17.9271 15.7694L13.9761 11.8184Z" fill="#D93F21"/>
<path d="M22.8962 11.9989C22.8962 11.4275 22.6079 10.8509 22.0364 10.5311C22.0364 10.5311 20.9677 9.93479 17.6919 8.10254L13.7955 11.9989L17.6957 15.8992C20.9355 14.0801 22.0364 13.4667 22.0364 13.4667C22.6079 13.147 22.8962 12.5703 22.8962 11.9989Z" fill="#FFD500"/>
<path d="M22.0364 13.4669C22.6079 13.1471 22.8962 12.5704 22.8962 11.999H13.7955L17.6957 15.8993C20.9356 14.0802 22.0364 13.4669 22.0364 13.4669Z" fill="#FFAA00"/>
</g>
<path d="M36.7891 16.5V8.5H39.7891C40.4036 8.5 40.9193 8.61458 41.3359 8.84375C41.7552 9.07292 42.0716 9.38802 42.2852 9.78906C42.5013 10.1875 42.6094 10.6406 42.6094 11.1484C42.6094 11.6615 42.5013 12.1172 42.2852 12.5156C42.069 12.9141 41.75 13.2279 41.3281 13.457C40.9063 13.6836 40.3867 13.7969 39.7695 13.7969H37.7813V12.6055H39.5742C39.9336 12.6055 40.2279 12.543 40.457 12.418C40.6862 12.293 40.8555 12.1211 40.9648 11.9023C41.0768 11.6836 41.1328 11.4323 41.1328 11.1484C41.1328 10.8646 41.0768 10.6146 40.9648 10.3984C40.8555 10.1823 40.6849 10.0143 40.4531 9.89453C40.224 9.77214 39.9284 9.71094 39.5664 9.71094H38.2383V16.5H36.7891ZM44.1982 16.5V8.5H45.6474V15.2852H49.1708V16.5H44.1982ZM52.0868 16.5H50.5399L53.3563 8.5H55.1454L57.9657 16.5H56.4188L54.2821 10.1406H54.2196L52.0868 16.5ZM52.1375 13.3633H56.3563V14.5273H52.1375V13.3633ZM57.9861 8.5H59.6228L61.5798 12.0391H61.658L63.615 8.5H65.2517L62.3416 13.5156V16.5H60.8962V13.5156L57.9861 8.5ZM74.0143 10.6992C73.9778 10.3581 73.8242 10.0924 73.5533 9.90234C73.2851 9.71224 72.9361 9.61719 72.5064 9.61719C72.2044 9.61719 71.9452 9.66276 71.7291 9.75391C71.513 9.84505 71.3476 9.96875 71.233 10.125C71.1184 10.2812 71.0598 10.4596 71.0572 10.6602C71.0572 10.8268 71.095 10.9714 71.1705 11.0937C71.2486 11.2161 71.3541 11.3203 71.4869 11.4062C71.6197 11.4896 71.7669 11.5599 71.9283 11.6172C72.0898 11.6745 72.2525 11.7227 72.4166 11.7617L73.1666 11.9492C73.4687 12.0195 73.7591 12.1146 74.0377 12.2344C74.3189 12.3542 74.5702 12.5052 74.7916 12.6875C75.0156 12.8698 75.1926 13.0898 75.3229 13.3477C75.4531 13.6055 75.5182 13.9076 75.5182 14.2539C75.5182 14.7227 75.3984 15.1354 75.1588 15.4922C74.9192 15.8464 74.5729 16.1237 74.1197 16.3242C73.6692 16.5221 73.1236 16.6211 72.483 16.6211C71.8606 16.6211 71.3202 16.5247 70.8619 16.332C70.4062 16.1393 70.0494 15.8581 69.7916 15.4883C69.5364 15.1185 69.3984 14.668 69.3775 14.1367H70.8033C70.8242 14.4154 70.9101 14.6471 71.0611 14.832C71.2122 15.0169 71.4088 15.1549 71.651 15.2461C71.8958 15.3372 72.1692 15.3828 72.4713 15.3828C72.7864 15.3828 73.0624 15.3359 73.2994 15.2422C73.539 15.1458 73.7265 15.013 73.8619 14.8437C73.9973 14.6719 74.0663 14.4714 74.0689 14.2422C74.0663 14.0339 74.0051 13.862 73.8854 13.7266C73.7656 13.5885 73.5976 13.474 73.3814 13.3828C73.1679 13.2891 72.9179 13.2057 72.6314 13.1328L71.7213 12.8984C71.0624 12.7292 70.5416 12.4727 70.1588 12.1289C69.7786 11.7826 69.5885 11.3229 69.5885 10.75C69.5885 10.2786 69.7161 9.86589 69.9713 9.51172C70.2291 9.15755 70.5794 8.88281 71.0221 8.6875C71.4648 8.48958 71.9661 8.39062 72.526 8.39062C73.0937 8.39062 73.5911 8.48958 74.0182 8.6875C74.4479 8.88281 74.7851 9.15495 75.0299 9.50391C75.2747 9.85026 75.401 10.2487 75.4088 10.6992H74.0143ZM76.7886 9.71484V8.5H83.1714V9.71484H80.6987V16.5H79.2612V9.71484H76.7886ZM91.5258 12.5C91.5258 13.362 91.3644 14.1003 91.0414 14.7148C90.7211 15.3268 90.2836 15.7956 89.7289 16.1211C89.1769 16.4466 88.5506 16.6094 87.85 16.6094C87.1495 16.6094 86.5219 16.4466 85.9672 16.1211C85.4151 15.793 84.9776 15.3229 84.6547 14.7109C84.3344 14.0964 84.1743 13.3594 84.1743 12.5C84.1743 11.638 84.3344 10.901 84.6547 10.2891C84.9776 9.67448 85.4151 9.20443 85.9672 8.87891C86.5219 8.55339 87.1495 8.39062 87.85 8.39062C88.5506 8.39062 89.1769 8.55339 89.7289 8.87891C90.2836 9.20443 90.7211 9.67448 91.0414 10.2891C91.3644 10.901 91.5258 11.638 91.5258 12.5ZM90.0688 12.5C90.0688 11.8932 89.9737 11.3815 89.7836 10.9648C89.5961 10.5456 89.3357 10.2292 89.0024 10.0156C88.6691 9.79948 88.2849 9.69141 87.85 9.69141C87.4151 9.69141 87.031 9.79948 86.6977 10.0156C86.3644 10.2292 86.1026 10.5456 85.9125 10.9648C85.725 11.3815 85.6313 11.8932 85.6313 12.5C85.6313 13.1068 85.725 13.6198 85.9125 14.0391C86.1026 14.4557 86.3644 14.7721 86.6977 14.9883C87.031 15.2018 87.4151 15.3086 87.85 15.3086C88.2849 15.3086 88.6691 15.2018 89.0024 14.9883C89.3357 14.7721 89.5961 14.4557 89.7836 14.0391C89.9737 13.6198 90.0688 13.1068 90.0688 12.5ZM93.2259 16.5V8.5H96.2259C96.8405 8.5 97.3561 8.60677 97.7728 8.82031C98.1921 9.03385 98.5085 9.33333 98.722 9.71875C98.9382 10.1016 99.0462 10.5482 99.0462 11.0586C99.0462 11.5716 98.9369 12.0169 98.7181 12.3945C98.502 12.7695 98.183 13.0599 97.7611 13.2656C97.3392 13.4687 96.821 13.5703 96.2064 13.5703H94.0697V12.3672H96.0111C96.3705 12.3672 96.6647 12.3177 96.8939 12.2187C97.1231 12.1172 97.2923 11.9701 97.4017 11.7773C97.5137 11.582 97.5697 11.3424 97.5697 11.0586C97.5697 10.7747 97.5137 10.5326 97.4017 10.332C97.2897 10.1289 97.1192 9.97526 96.89 9.87109C96.6608 9.76432 96.3653 9.71094 96.0033 9.71094H94.6752V16.5H93.2259ZM97.3587 12.875L99.3392 16.5H97.722L95.7767 12.875H97.3587ZM100.71 16.5V8.5H105.913V9.71484H102.159V11.8867H105.644V13.1016H102.159V15.2852H105.945V16.5H100.71Z" fill="#384B4B"/>
<defs>
<clipPath id="clip0_38_2711">
<rect width="24" height="24" fill="white"/>
</clipPath>
</defs>
</svg>
