<svg width="578" height="531" viewBox="0 0 578 531" fill="none" xmlns="http://www.w3.org/2000/svg">
<ellipse opacity="0.5" cx="287.922" cy="299.313" rx="229" ry="223.313" fill="url(#paint0_linear_48_2508)"/>
<rect width="49.3655" height="14.1972" rx="7.09862" transform="matrix(0.965926 0.258819 -0.246262 0.969203 403.387 75.6284)" fill="#DDDDDD"/>
<g filter="url(#filter0_d_48_2508)">
<rect width="235.212" height="434.435" rx="27.5246" transform="matrix(0.965926 0.258819 -0.246262 0.969203 316.319 40.541)" fill="white"/>
</g>
<rect width="55.446" height="3.00013" rx="1.50007" transform="matrix(0.96594 0.258823 -0.248507 0.968585 292.746 461)" fill="#E1EBEB"/>
<rect width="198.997" height="290.969" rx="4" transform="matrix(0.965939 0.258823 -0.248059 0.968707 312.159 131.435)" fill="#F2F5F5"/>
<rect width="168.385" height="11.9978" rx="5.99889" transform="matrix(0.965931 0.25882 -0.231702 0.972977 283.283 272.439)" fill="#DBE2E2"/>
<rect width="181.74" height="115.679" rx="6" transform="matrix(0.96583 0.259195 -0.232079 0.972887 318.234 142.008)" fill="#DBE2E2"/>
<rect width="180.778" height="5.99928" rx="2.99964" transform="matrix(0.965932 0.258821 -0.236595 0.971732 277.069 295.632)" fill="#DBE2E2"/>
<rect width="148.876" height="5.99929" rx="2.99965" transform="matrix(0.965932 0.258821 -0.236712 0.971702 273.917 308.326)" fill="#DBE2E2"/>
<rect width="126.044" height="5.99929" rx="2.99965" transform="matrix(0.965932 0.258821 -0.236712 0.971702 270.536 320.945)" fill="#DBE2E2"/>
<rect width="161.388" height="5.99929" rx="2.99965" transform="matrix(0.965932 0.258821 -0.236712 0.971702 270.536 337)" fill="#DBE2E2"/>
<rect width="146.029" height="5.99929" rx="2.99965" transform="matrix(0.965932 0.258821 -0.236712 0.971702 270.536 353)" fill="#DBE2E2"/>
<rect width="146.029" height="5.99929" rx="2.99965" transform="matrix(0.965932 0.258821 -0.236712 0.971702 270.536 371)" fill="#DBE2E2"/>
<rect width="151.211" height="5.99929" rx="2.99965" transform="matrix(0.965932 0.258821 -0.236712 0.971702 270.536 390)" fill="#DBE2E2"/>
<rect opacity="0.5" width="136.477" height="15.0002" rx="7.50012" transform="matrix(0.966252 0.257642 -0.245425 0.969399 355.864 93.9512)" fill="#B6C5C5"/>
<rect width="49.3655" height="14.1972" rx="7.09862" transform="matrix(0.965926 -0.258819 0.271332 0.962486 106.727 88.4507)" fill="#DDDDDD"/>
<g filter="url(#filter1_d_48_2508)">
<rect width="235.212" height="434.435" rx="27.5246" transform="matrix(0.965926 -0.258819 0.271332 0.962486 13.8882 101.569)" fill="white"/>
</g>
<rect width="94.535" height="140.005" rx="4" transform="matrix(0.965939 -0.258823 0.269528 0.962954 51.5287 167.112)" fill="#F2F5F5"/>
<rect width="71.6763" height="11.7346" rx="5.86729" transform="matrix(0.966174 -0.257936 0.270097 0.962816 63.7099 179.324)" fill="#DBE2E2"/>
<rect width="28.7523" height="17.8749" rx="8.93743" transform="matrix(0.965937 -0.258822 0.270979 0.962568 117.991 283.34)" fill="#DBE2E2"/>
<rect width="76.9516" height="4.88943" rx="2.44471" transform="matrix(0.96623 -0.257735 0.267994 0.963375 69.9216 202.506)" fill="#DBE2E2"/>
<rect width="63.3719" height="4.88943" rx="2.44471" transform="matrix(0.96623 -0.257735 0.267994 0.963375 73.3789 215.013)" fill="#DBE2E2"/>
<rect width="53.653" height="4.88943" rx="2.44471" transform="matrix(0.96623 -0.257735 0.267994 0.963375 76.7333 227.532)" fill="#DBE2E2"/>
<rect width="13.9873" height="3.00005" rx="1.50002" transform="matrix(0.965937 -0.258822 0.270979 0.962568 127.174 288.622)" fill="white"/>
<rect width="11.9999" height="3.00005" rx="1.50002" transform="matrix(0.238594 0.971131 -0.968017 0.250819 134.809 281.426)" fill="white"/>
<rect width="94.535" height="140.005" rx="4" transform="matrix(0.965939 -0.258823 0.269528 0.962954 94.5018 327.49)" fill="#F2F5F5"/>
<rect width="71.6763" height="11.7346" rx="5.86729" transform="matrix(0.966174 -0.257936 0.270097 0.962816 106.683 339.702)" fill="#DBE2E2"/>
<rect width="28.7523" height="17.8749" rx="8.93743" transform="matrix(0.965937 -0.258822 0.270979 0.962568 160.964 443.718)" fill="#DBE2E2"/>
<rect width="76.9516" height="4.88943" rx="2.44471" transform="matrix(0.96623 -0.257735 0.267994 0.963375 112.895 362.884)" fill="#DBE2E2"/>
<rect width="63.3719" height="4.88943" rx="2.44471" transform="matrix(0.96623 -0.257735 0.267994 0.963375 116.352 375.391)" fill="#DBE2E2"/>
<rect width="53.653" height="4.88943" rx="2.44471" transform="matrix(0.96623 -0.257735 0.267994 0.963375 119.706 387.91)" fill="#DBE2E2"/>
<rect width="13.9873" height="3.00005" rx="1.50002" transform="matrix(0.965937 -0.258822 0.270979 0.962568 170.147 449)" fill="white"/>
<rect width="11.9999" height="3.00005" rx="1.50002" transform="matrix(0.238594 0.971131 -0.968017 0.250819 177.782 441.804)" fill="white"/>
<rect width="94.535" height="140.005" rx="4" transform="matrix(0.965939 -0.258823 0.269528 0.962954 153.616 139.758)" fill="#F2F5F5"/>
<rect width="71.6763" height="11.7346" rx="5.86729" transform="matrix(0.966174 -0.257936 0.270097 0.962816 165.797 151.969)" fill="#DBE2E2"/>
<rect width="28.7523" height="17.8749" rx="8.93743" transform="matrix(0.965937 -0.258822 0.270979 0.962568 220.079 255.986)" fill="#DBE2E2"/>
<rect width="76.9516" height="4.88943" rx="2.44471" transform="matrix(0.96623 -0.257735 0.267994 0.963375 172.009 175.152)" fill="#DBE2E2"/>
<rect width="63.3719" height="4.88943" rx="2.44471" transform="matrix(0.96623 -0.257735 0.267994 0.963375 175.466 187.659)" fill="#DBE2E2"/>
<rect width="53.653" height="4.88943" rx="2.44471" transform="matrix(0.96623 -0.257735 0.267994 0.963375 178.821 200.177)" fill="#DBE2E2"/>
<rect width="13.9873" height="3.00005" rx="1.50002" transform="matrix(0.965937 -0.258822 0.270979 0.962568 229.261 261.268)" fill="white"/>
<rect width="11.9999" height="3.00005" rx="1.50002" transform="matrix(0.238594 0.971131 -0.968017 0.250819 236.897 254.072)" fill="white"/>
<rect width="94.535" height="140.005" rx="4" transform="matrix(0.965939 -0.258823 0.269528 0.962954 196.589 300.135)" fill="#F2F5F5"/>
<rect width="71.6763" height="11.7346" rx="5.86729" transform="matrix(0.966174 -0.257936 0.270097 0.962816 208.77 312.347)" fill="#DBE2E2"/>
<rect width="28.7523" height="17.8749" rx="8.93743" transform="matrix(0.965937 -0.258822 0.270979 0.962568 263.052 416.364)" fill="#DBE2E2"/>
<rect width="76.9516" height="4.88943" rx="2.44471" transform="matrix(0.96623 -0.257735 0.267994 0.963375 214.982 335.53)" fill="#DBE2E2"/>
<rect width="63.3719" height="4.88943" rx="2.44471" transform="matrix(0.96623 -0.257735 0.267994 0.963375 218.439 348.037)" fill="#DBE2E2"/>
<rect width="53.653" height="4.88943" rx="2.44471" transform="matrix(0.96623 -0.257735 0.267994 0.963375 221.794 360.555)" fill="#DBE2E2"/>
<rect width="13.9873" height="3.00005" rx="1.50002" transform="matrix(0.965937 -0.258822 0.270979 0.962568 272.234 421.646)" fill="white"/>
<rect width="11.9999" height="3.00005" rx="1.50002" transform="matrix(0.238594 0.971131 -0.968017 0.250819 279.87 414.449)" fill="white"/>
<rect width="71.6763" height="11.7346" rx="5.86729" transform="matrix(0.966174 -0.257936 0.270097 0.962816 41.3036 138.74)" fill="#DBE2E2"/>
<rect width="55.446" height="3.00013" rx="1.50007" transform="matrix(0.96623 -0.257735 0.267994 0.963375 214 478.29)" fill="#E1EBEB"/>
<defs>
<filter id="filter0_d_48_2508" x="195.255" y="0.723145" width="382.34" height="529.569" filterUnits="userSpaceOnUse" color-interpolation-filters="sRGB">
<feFlood flood-opacity="0" result="BackgroundImageFix"/>
<feColorMatrix in="SourceAlpha" type="matrix" values="0 0 0 0 0 0 0 0 0 0 0 0 0 0 0 0 0 0 127 0" result="hardAlpha"/>
<feOffset dx="10" dy="-16"/>
<feGaussianBlur stdDeviation="15"/>
<feComposite in2="hardAlpha" operator="out"/>
<feColorMatrix type="matrix" values="0 0 0 0 0.0470588 0 0 0 0 0.0901961 0 0 0 0 0.0901961 0 0 0 0.05 0"/>
<feBlend mode="normal" in2="BackgroundImageFix" result="effect1_dropShadow_48_2508"/>
<feBlend mode="normal" in="SourceGraphic" in2="effect1_dropShadow_48_2508" result="shape"/>
</filter>
<filter id="filter1_d_48_2508" x="0.320404" y="0.867676" width="392.209" height="526.663" filterUnits="userSpaceOnUse" color-interpolation-filters="sRGB">
<feFlood flood-opacity="0" result="BackgroundImageFix"/>
<feColorMatrix in="SourceAlpha" type="matrix" values="0 0 0 0 0 0 0 0 0 0 0 0 0 0 0 0 0 0 127 0" result="hardAlpha"/>
<feOffset dx="10" dy="-16"/>
<feGaussianBlur stdDeviation="15"/>
<feComposite in2="hardAlpha" operator="out"/>
<feColorMatrix type="matrix" values="0 0 0 0 0.0470588 0 0 0 0 0.0901961 0 0 0 0 0.0901961 0 0 0 0.05 0"/>
<feBlend mode="normal" in2="BackgroundImageFix" result="effect1_dropShadow_48_2508"/>
<feBlend mode="normal" in="SourceGraphic" in2="effect1_dropShadow_48_2508" result="shape"/>
</filter>
<linearGradient id="paint0_linear_48_2508" x1="287.922" y1="76" x2="287.922" y2="522.626" gradientUnits="userSpaceOnUse">
<stop stop-color="#A0E15F"/>
<stop offset="1" stop-color="#A0E15F" stop-opacity="0"/>
</linearGradient>
</defs>
</svg>
