<svg width="578" height="531" viewBox="0 0 578 531" fill="none" xmlns="http://www.w3.org/2000/svg">
<ellipse opacity="0.5" cx="287.922" cy="299.687" rx="229" ry="223.313" fill="url(#paint0_linear_48_2895)"/>
<rect width="49.3655" height="14.1972" rx="7.09862" transform="matrix(0.965926 0.258819 -0.246262 0.969203 403.39 75.5994)" fill="#DDDDDD"/>
<g filter="url(#filter0_d_48_2895)">
<rect width="235.212" height="434.435" rx="27.5246" transform="matrix(0.965926 0.258819 -0.246262 0.969203 316.431 40.541)" fill="white"/>
</g>
<rect width="94.5352" height="44.9825" rx="4" transform="matrix(0.965699 0.259707 -0.247498 0.968872 300.586 165.136)" fill="#E1EBEB"/>
<rect width="62.282" height="4.88941" rx="2.4447" transform="matrix(0.965699 0.259707 -0.247498 0.968872 288.001 214.403)" fill="#E1EBEB"/>
<rect width="94.5352" height="4.88941" rx="2.4447" transform="matrix(0.965699 0.259707 -0.247498 0.968872 285.339 224.825)" fill="#E1EBEB"/>
<rect width="77.8525" height="4.88941" rx="2.4447" transform="matrix(0.965699 0.259707 -0.247498 0.968872 282.676 235.247)" fill="#E1EBEB"/>
<rect width="94.5352" height="44.9825" rx="4" transform="matrix(0.965699 0.259707 -0.247498 0.968872 406.915 193.731)" fill="#E1EBEB"/>
<rect width="62.282" height="4.88941" rx="2.4447" transform="matrix(0.965699 0.259707 -0.247498 0.968872 394.33 242.998)" fill="#E1EBEB"/>
<rect width="94.5352" height="4.88941" rx="2.4447" transform="matrix(0.965699 0.259707 -0.247498 0.968872 391.668 253.42)" fill="#E1EBEB"/>
<rect width="77.8525" height="4.88941" rx="2.4447" transform="matrix(0.965699 0.259707 -0.247498 0.968872 389.006 263.842)" fill="#E1EBEB"/>
<rect width="94.5352" height="44.9825" rx="4" transform="matrix(0.965699 0.259707 -0.247498 0.968872 274.333 263.114)" fill="#E1EBEB"/>
<rect width="62.282" height="4.88941" rx="2.4447" transform="matrix(0.965699 0.259707 -0.247498 0.968872 261.748 312.381)" fill="#E1EBEB"/>
<rect width="94.5352" height="4.88941" rx="2.4447" transform="matrix(0.965699 0.259707 -0.247498 0.968872 259.085 322.803)" fill="#E1EBEB"/>
<rect width="77.8525" height="4.88941" rx="2.4447" transform="matrix(0.965699 0.259707 -0.247498 0.968872 256.423 333.225)" fill="#E1EBEB"/>
<rect width="94.5352" height="44.9825" rx="4" transform="matrix(0.965699 0.259707 -0.247498 0.968872 380.662 291.709)" fill="#E1EBEB"/>
<rect width="62.282" height="4.88941" rx="2.4447" transform="matrix(0.965699 0.259707 -0.247498 0.968872 368.077 340.976)" fill="#E1EBEB"/>
<rect width="94.5352" height="4.88941" rx="2.4447" transform="matrix(0.965699 0.259707 -0.247498 0.968872 365.415 351.398)" fill="#E1EBEB"/>
<rect width="77.8525" height="4.88941" rx="2.4447" transform="matrix(0.965699 0.259707 -0.247498 0.968872 362.753 361.82)" fill="#E1EBEB"/>
<rect width="94.5352" height="44.9825" rx="4" transform="matrix(0.965699 0.259707 -0.247498 0.968872 248.08 361.092)" fill="#E1EBEB"/>
<rect width="62.282" height="4.88941" rx="2.4447" transform="matrix(0.965699 0.259707 -0.247498 0.968872 235.495 410.359)" fill="#E1EBEB"/>
<rect width="94.5352" height="4.88941" rx="2.4447" transform="matrix(0.965699 0.259707 -0.247498 0.968872 232.832 420.781)" fill="#E1EBEB"/>
<rect width="77.8525" height="4.88941" rx="2.4447" transform="matrix(0.965699 0.259707 -0.247498 0.968872 230.17 431.203)" fill="#E1EBEB"/>
<rect width="94.5352" height="44.9825" rx="4" transform="matrix(0.965699 0.259707 -0.247498 0.968872 354.409 389.687)" fill="#E1EBEB"/>
<rect width="62.282" height="4.88941" rx="2.4447" transform="matrix(0.965699 0.259707 -0.247498 0.968872 341.824 438.954)" fill="#E1EBEB"/>
<rect width="94.5352" height="4.88941" rx="2.4447" transform="matrix(0.965699 0.259707 -0.247498 0.968872 339.162 449.375)" fill="#E1EBEB"/>
<rect width="77.8525" height="4.88941" rx="2.4447" transform="matrix(0.965699 0.259707 -0.247498 0.968872 336.5 459.797)" fill="#E1EBEB"/>
<rect width="71.6763" height="11.7346" rx="5.86729" transform="matrix(0.965699 0.259707 -0.247498 0.968872 307.875 137.618)" fill="#DBE2E2"/>
<rect opacity="0.5" width="136.477" height="15.0002" rx="7.50012" transform="matrix(0.966252 0.257642 -0.245425 0.969399 352.864 98.9512)" fill="#B6C5C5"/>
<rect width="49.3655" height="14.1972" rx="7.09862" transform="matrix(0.965926 -0.258819 0.271332 0.962486 106.783 88.7419)" fill="#DDDDDD"/>
<g filter="url(#filter1_d_48_2895)">
<rect width="235.212" height="434.435" rx="27.5246" transform="matrix(0.965926 -0.258819 0.271332 0.962486 13.9448 101.86)" fill="white"/>
</g>
<rect width="94.5352" height="44.9825" rx="4" transform="matrix(0.966174 -0.257936 0.270097 0.962816 61.2267 212.856)" fill="#E1EBEB"/>
<rect width="62.282" height="4.88941" rx="2.4447" transform="matrix(0.966174 -0.257936 0.270097 0.962816 74.9611 261.815)" fill="#E1EBEB"/>
<rect width="94.5352" height="4.88941" rx="2.4447" transform="matrix(0.966174 -0.257936 0.270097 0.962816 77.8665 272.172)" fill="#E1EBEB"/>
<rect width="77.8525" height="4.88941" rx="2.4447" transform="matrix(0.966174 -0.257936 0.270097 0.962816 80.7717 282.529)" fill="#E1EBEB"/>
<rect width="94.5352" height="44.9825" rx="4" transform="matrix(0.966174 -0.257936 0.270097 0.962816 167.608 184.456)" fill="#E1EBEB"/>
<rect width="62.282" height="4.88941" rx="2.4447" transform="matrix(0.966174 -0.257936 0.270097 0.962816 181.342 233.415)" fill="#E1EBEB"/>
<rect width="94.5352" height="4.88941" rx="2.4447" transform="matrix(0.966174 -0.257936 0.270097 0.962816 184.248 243.771)" fill="#E1EBEB"/>
<rect width="77.8525" height="4.88941" rx="2.4447" transform="matrix(0.966174 -0.257936 0.270097 0.962816 187.153 254.128)" fill="#E1EBEB"/>
<rect width="71.6763" height="11.7346" rx="5.86729" transform="matrix(0.966174 -0.257936 0.270097 0.962816 55.0737 190.21)" fill="#DBE2E2"/>
<rect opacity="0.5" width="136.477" height="15.0002" rx="7.50012" transform="matrix(0.966253 -0.257639 0.2698 0.9629 75 134.162)" fill="#B6C5C5"/>
<rect width="204.641" height="186.775" rx="10" transform="matrix(0.966174 -0.257936 0.270097 0.962816 85.5986 299.95)" fill="#F2F5F5"/>
<rect width="18.6982" height="5.86729" rx="2.93364" transform="matrix(0.966174 -0.257936 0.270097 0.962816 145.818 456.931)" fill="#6ACFE6"/>
<rect width="18.6982" height="5.86729" rx="2.93364" transform="matrix(0.966174 -0.257936 0.270097 0.962816 290.344 418.347)" fill="#A0E15F"/>
<rect width="117.383" height="10.7567" rx="5.37835" transform="matrix(0.966174 -0.257936 0.270097 0.962816 102.925 315.565)" fill="#DBE2E2"/>
<rect width="179.71" height="4.88941" rx="2.4447" transform="matrix(0.966174 -0.257936 0.270097 0.962816 107.679 332.512)" fill="#DBE2E2"/>
<rect width="179.71" height="4.88941" rx="2.4447" transform="matrix(0.966174 -0.257936 0.270097 0.962816 116.131 362.641)" fill="#DBE2E2"/>
<rect width="128.81" height="4.88941" rx="2.4447" transform="matrix(0.966174 -0.257936 0.270097 0.962816 124.583 392.769)" fill="#DBE2E2"/>
<rect width="128.81" height="4.88941" rx="2.4447" transform="matrix(0.966174 -0.257936 0.270097 0.962816 133.035 422.898)" fill="#DBE2E2"/>
<rect width="148.546" height="4.88941" rx="2.4447" transform="matrix(0.966174 -0.257936 0.270097 0.962816 111.905 347.577)" fill="#DBE2E2"/>
<rect width="157.896" height="4.88941" rx="2.4447" transform="matrix(0.966174 -0.257936 0.270097 0.962816 120.357 377.705)" fill="#DBE2E2"/>
<rect width="165.167" height="4.88941" rx="2.4447" transform="matrix(0.966174 -0.257936 0.270097 0.962816 128.809 407.834)" fill="#DBE2E2"/>
<rect width="148.546" height="4.88941" rx="2.4447" transform="matrix(0.966174 -0.257936 0.270097 0.962816 137.261 437.963)" fill="#DBE2E2"/>
<defs>
<filter id="filter0_d_48_2895" x="195.367" y="0.723145" width="382.34" height="529.569" filterUnits="userSpaceOnUse" color-interpolation-filters="sRGB">
<feFlood flood-opacity="0" result="BackgroundImageFix"/>
<feColorMatrix in="SourceAlpha" type="matrix" values="0 0 0 0 0 0 0 0 0 0 0 0 0 0 0 0 0 0 127 0" result="hardAlpha"/>
<feOffset dx="10" dy="-16"/>
<feGaussianBlur stdDeviation="15"/>
<feComposite in2="hardAlpha" operator="out"/>
<feColorMatrix type="matrix" values="0 0 0 0 0.0470588 0 0 0 0 0.0901961 0 0 0 0 0.0901961 0 0 0 0.05 0"/>
<feBlend mode="normal" in2="BackgroundImageFix" result="effect1_dropShadow_48_2895"/>
<feBlend mode="normal" in="SourceGraphic" in2="effect1_dropShadow_48_2895" result="shape"/>
</filter>
<filter id="filter1_d_48_2895" x="0.377075" y="1.15894" width="392.209" height="526.663" filterUnits="userSpaceOnUse" color-interpolation-filters="sRGB">
<feFlood flood-opacity="0" result="BackgroundImageFix"/>
<feColorMatrix in="SourceAlpha" type="matrix" values="0 0 0 0 0 0 0 0 0 0 0 0 0 0 0 0 0 0 127 0" result="hardAlpha"/>
<feOffset dx="10" dy="-16"/>
<feGaussianBlur stdDeviation="15"/>
<feComposite in2="hardAlpha" operator="out"/>
<feColorMatrix type="matrix" values="0 0 0 0 0.0470588 0 0 0 0 0.0901961 0 0 0 0 0.0901961 0 0 0 0.05 0"/>
<feBlend mode="normal" in2="BackgroundImageFix" result="effect1_dropShadow_48_2895"/>
<feBlend mode="normal" in="SourceGraphic" in2="effect1_dropShadow_48_2895" result="shape"/>
</filter>
<linearGradient id="paint0_linear_48_2895" x1="287.922" y1="76.3735" x2="287.922" y2="523" gradientUnits="userSpaceOnUse">
<stop stop-color="#E27A7A"/>
<stop offset="1" stop-color="#E27A7A" stop-opacity="0"/>
</linearGradient>
</defs>
</svg>
