<svg width="205" height="56" viewBox="0 0 205 56" fill="none" xmlns="http://www.w3.org/2000/svg">
<rect width="205" height="56" rx="28" fill="white"/>
<mask id="mask0_14_347" style="mask-type:alpha" maskUnits="userSpaceOnUse" x="35" y="15" width="24" height="26">
<path d="M57.3578 26.5004C58.5474 27.155 58.5474 28.845 57.3578 29.4996L38.334 39.968C37.1755 40.6055 35.75 39.7782 35.75 38.4684L35.75 17.5316C35.75 16.2218 37.1755 15.3945 38.334 16.032L57.3578 26.5004Z" fill="#C4C4C4"/>
</mask>
<g mask="url(#mask0_14_347)">
<path d="M36.3451 39.7623L48.2115 27.8292L36.5405 16.0925C36.0749 16.391 35.75 16.9063 35.75 17.5317V38.4684C35.75 39.0019 35.9865 39.4553 36.3451 39.7623Z" fill="url(#paint0_linear_14_347)"/>
<path d="M57.3577 26.5004C58.5472 27.1549 58.5472 28.845 57.3577 29.4996L52.5584 32.1405L48.2114 27.8291L52.3367 23.7374L57.3577 26.5004Z" fill="url(#paint1_linear_14_347)"/>
<path d="M52.5587 32.1406L48.2117 27.8291L36.3452 39.7623C36.867 40.2091 37.6475 40.3459 38.3342 39.968L52.5587 32.1406Z" fill="url(#paint2_linear_14_347)"/>
<path d="M36.5405 16.0925L48.2116 27.8291L52.3369 23.7374L38.334 16.032C37.7286 15.6989 37.0502 15.7657 36.5405 16.0925Z" fill="url(#paint3_linear_14_347)"/>
</g>
<path d="M85.832 41L85.656 39.8C85.224 40.456 84.376 41.128 82.936 41.128C80.232 41.128 77.768 39.224 77.768 35.4C77.768 31.576 80.328 29.672 83.096 29.672C85.592 29.672 87.176 31.16 87.752 33.208L85.848 33.704C85.32 32.424 84.456 31.592 83.096 31.592C81.304 31.592 79.88 32.792 79.88 35.4C79.88 38.088 81.304 39.208 83.048 39.208C84.696 39.208 85.432 38.088 85.56 37.08H83.48V35.352H87.576V41H85.832ZM89.438 36.968C89.438 34.632 90.942 32.808 93.534 32.808C96.126 32.808 97.63 34.632 97.63 36.968C97.63 39.304 96.126 41.128 93.534 41.128C90.942 41.128 89.438 39.304 89.438 36.968ZM91.518 36.968C91.518 38.296 92.254 39.432 93.534 39.432C94.814 39.432 95.55 38.296 95.55 36.968C95.55 35.64 94.814 34.504 93.534 34.504C92.254 34.504 91.518 35.64 91.518 36.968ZM99.1099 36.968C99.1099 34.632 100.614 32.808 103.206 32.808C105.798 32.808 107.302 34.632 107.302 36.968C107.302 39.304 105.798 41.128 103.206 41.128C100.614 41.128 99.1099 39.304 99.1099 36.968ZM101.19 36.968C101.19 38.296 101.926 39.432 103.206 39.432C104.486 39.432 105.222 38.296 105.222 36.968C105.222 35.64 104.486 34.504 103.206 34.504C101.926 34.504 101.19 35.64 101.19 36.968ZM109.234 35.528C109.234 33.848 110.562 32.808 112.194 32.808C112.738 32.808 113.234 32.936 113.682 33.16L115.202 32.36L115.986 33.672L114.834 34.248C115.042 34.616 115.154 35.048 115.154 35.528C115.154 37.224 113.826 38.216 112.194 38.216C111.778 38.216 111.378 38.152 111.026 38.04C110.786 38.184 110.642 38.392 110.642 38.648C110.642 39.032 110.914 39.24 111.394 39.24H113.042C114.738 39.24 115.874 40.056 115.874 41.608C115.874 43.592 114.002 44.392 112.21 44.392C110.146 44.392 108.562 43.496 108.562 41.736C108.562 41.08 108.802 40.52 109.218 40.136C108.962 39.832 108.802 39.4 108.802 38.888C108.802 38.12 109.202 37.544 109.794 37.192C109.442 36.76 109.234 36.2 109.234 35.528ZM112.594 40.904H111.506C111.17 40.904 110.866 40.888 110.578 40.84C110.45 41.032 110.402 41.272 110.402 41.576C110.402 42.344 111.17 42.728 112.21 42.728C113.154 42.728 113.89 42.456 113.89 41.736C113.89 41.064 113.346 40.904 112.594 40.904ZM111.09 35.528C111.09 36.184 111.554 36.616 112.194 36.616C112.834 36.616 113.298 36.184 113.298 35.528C113.298 34.856 112.834 34.408 112.194 34.408C111.554 34.408 111.09 34.856 111.09 35.528ZM117.482 29.672H119.466V41H117.482V29.672ZM128.945 36.792V37.608H123.393C123.441 38.504 124.065 39.432 125.297 39.432C126.209 39.432 126.769 39.016 127.249 38.184L128.849 38.776C128.225 40.2 127.137 41.128 125.185 41.128C122.417 41.128 121.313 38.872 121.313 36.968C121.313 35.064 122.417 32.808 125.185 32.808C127.873 32.808 128.945 35.032 128.945 36.792ZM125.185 34.504C124.177 34.504 123.585 35.272 123.441 36.04H126.913C126.737 35.24 126.241 34.504 125.185 34.504ZM139.148 36.616H137.004V41H134.924V29.8H139.148C141.516 29.8 142.652 31.256 142.652 33.208C142.652 35.16 141.516 36.616 139.148 36.616ZM139.068 34.696C139.98 34.696 140.54 34.232 140.54 33.208C140.54 32.184 139.98 31.72 139.068 31.72H137.004V34.696H139.068ZM144.201 29.672H146.185V41H144.201V29.672ZM149.951 35.432L148.271 35.048C148.527 33.72 149.695 32.808 151.343 32.808C153.263 32.808 154.735 33.608 154.735 36.184V41H153.103L152.895 39.976C152.335 40.664 151.567 41.128 150.415 41.128C149.039 41.128 147.967 40.28 147.967 38.68C147.967 37.08 149.375 36.04 151.407 36.04H152.751V35.688C152.751 34.792 152.079 34.504 151.343 34.504C150.783 34.504 150.207 34.68 149.951 35.432ZM150.047 38.648C150.047 39.032 150.319 39.432 150.879 39.432C151.791 39.432 152.751 38.808 152.751 37.768V37.608H151.423C150.575 37.608 150.047 37.928 150.047 38.648ZM155.579 32.936H157.579L159.451 37.992L161.211 32.936H163.195L159.035 44.264H157.115L158.507 40.488L155.579 32.936Z" fill="#0C1717"/>
<path d="M80.7841 22H77.9588V13.2727H80.8736C81.7287 13.2727 82.4631 13.4474 83.0767 13.7969C83.6903 14.1435 84.1605 14.642 84.4872 15.2926C84.8168 15.9403 84.9815 16.7173 84.9815 17.6236C84.9815 18.5327 84.8153 19.3139 84.483 19.9673C84.1534 20.6207 83.6761 21.1236 83.0511 21.4759C82.4261 21.8253 81.6705 22 80.7841 22ZM79.2756 20.8494H80.7116C81.3764 20.8494 81.929 20.7244 82.3693 20.4744C82.8097 20.2216 83.1392 19.8565 83.358 19.3793C83.5767 18.8991 83.6861 18.3139 83.6861 17.6236C83.6861 16.9389 83.5767 16.358 83.358 15.8807C83.142 15.4034 82.8196 15.0412 82.3906 14.794C81.9616 14.5469 81.429 14.4233 80.7926 14.4233H79.2756V20.8494ZM89.2738 22.1321C88.6602 22.1321 88.1246 21.9915 87.6673 21.7102C87.2099 21.429 86.8548 21.0355 86.6019 20.5298C86.3491 20.0241 86.2227 19.4332 86.2227 18.7571C86.2227 18.0781 86.3491 17.4844 86.6019 16.9759C86.8548 16.4673 87.2099 16.0724 87.6673 15.7912C88.1246 15.5099 88.6602 15.3693 89.2738 15.3693C89.8874 15.3693 90.4229 15.5099 90.8803 15.7912C91.3377 16.0724 91.6928 16.4673 91.9457 16.9759C92.1985 17.4844 92.3249 18.0781 92.3249 18.7571C92.3249 19.4332 92.1985 20.0241 91.9457 20.5298C91.6928 21.0355 91.3377 21.429 90.8803 21.7102C90.4229 21.9915 89.8874 22.1321 89.2738 22.1321ZM89.2781 21.0625C89.6758 21.0625 90.0053 20.9574 90.2667 20.7472C90.5281 20.5369 90.7212 20.2571 90.8462 19.9077C90.9741 19.5582 91.038 19.1733 91.038 18.7528C91.038 18.3352 90.9741 17.9517 90.8462 17.6023C90.7212 17.25 90.5281 16.9673 90.2667 16.7543C90.0053 16.5412 89.6758 16.4347 89.2781 16.4347C88.8775 16.4347 88.5451 16.5412 88.2809 16.7543C88.0195 16.9673 87.8249 17.25 87.6971 17.6023C87.5721 17.9517 87.5096 18.3352 87.5096 18.7528C87.5096 19.1733 87.5721 19.5582 87.6971 19.9077C87.8249 20.2571 88.0195 20.5369 88.2809 20.7472C88.5451 20.9574 88.8775 21.0625 89.2781 21.0625ZM94.967 22L93.0408 15.4545H94.3576L95.6403 20.2614H95.7042L96.9911 15.4545H98.3079L99.5863 20.2401H99.6502L100.924 15.4545H102.241L100.319 22H99.0195L97.69 17.2741H97.592L96.2624 22H94.967ZM104.724 18.1136V22H103.45V15.4545H104.673V16.5199H104.754C104.905 16.1733 105.141 15.8949 105.462 15.6847C105.786 15.4744 106.193 15.3693 106.685 15.3693C107.131 15.3693 107.521 15.4631 107.857 15.6506C108.192 15.8352 108.452 16.1108 108.636 16.4773C108.821 16.8437 108.913 17.2969 108.913 17.8366V22H107.639V17.9901C107.639 17.5156 107.516 17.1449 107.268 16.8778C107.021 16.608 106.682 16.473 106.25 16.473C105.955 16.473 105.692 16.5369 105.462 16.6648C105.234 16.7926 105.054 16.9801 104.92 17.2273C104.79 17.4716 104.724 17.767 104.724 18.1136ZM111.896 13.2727V22H110.622V13.2727H111.896ZM116.368 22.1321C115.754 22.1321 115.218 21.9915 114.761 21.7102C114.304 21.429 113.949 21.0355 113.696 20.5298C113.443 20.0241 113.316 19.4332 113.316 18.7571C113.316 18.0781 113.443 17.4844 113.696 16.9759C113.949 16.4673 114.304 16.0724 114.761 15.7912C115.218 15.5099 115.754 15.3693 116.368 15.3693C116.981 15.3693 117.517 15.5099 117.974 15.7912C118.431 16.0724 118.787 16.4673 119.039 16.9759C119.292 17.4844 119.419 18.0781 119.419 18.7571C119.419 19.4332 119.292 20.0241 119.039 20.5298C118.787 21.0355 118.431 21.429 117.974 21.7102C117.517 21.9915 116.981 22.1321 116.368 22.1321ZM116.372 21.0625C116.77 21.0625 117.099 20.9574 117.36 20.7472C117.622 20.5369 117.815 20.2571 117.94 19.9077C118.068 19.5582 118.132 19.1733 118.132 18.7528C118.132 18.3352 118.068 17.9517 117.94 17.6023C117.815 17.25 117.622 16.9673 117.36 16.7543C117.099 16.5412 116.77 16.4347 116.372 16.4347C115.971 16.4347 115.639 16.5412 115.375 16.7543C115.113 16.9673 114.919 17.25 114.791 17.6023C114.666 17.9517 114.603 18.3352 114.603 18.7528C114.603 19.1733 114.666 19.5582 114.791 19.9077C114.919 20.2571 115.113 20.5369 115.375 20.7472C115.639 20.9574 115.971 21.0625 116.372 21.0625ZM122.746 22.1449C122.331 22.1449 121.956 22.0682 121.621 21.9148C121.286 21.7585 121.02 21.5327 120.824 21.2372C120.631 20.9418 120.534 20.5795 120.534 20.1506C120.534 19.7812 120.605 19.4773 120.747 19.2386C120.889 19 121.081 18.8111 121.322 18.6719C121.564 18.5327 121.834 18.4276 122.132 18.3565C122.43 18.2855 122.734 18.2315 123.044 18.1946C123.436 18.1491 123.754 18.1122 123.999 18.0838C124.243 18.0526 124.42 18.0028 124.531 17.9347C124.642 17.8665 124.697 17.7557 124.697 17.6023V17.5724C124.697 17.2003 124.592 16.9119 124.382 16.7074C124.175 16.5028 123.865 16.4006 123.453 16.4006C123.024 16.4006 122.686 16.4957 122.439 16.6861C122.195 16.8736 122.026 17.0824 121.932 17.3125L120.734 17.0398C120.876 16.642 121.084 16.321 121.357 16.0767C121.632 15.8295 121.949 15.6506 122.307 15.5398C122.665 15.4261 123.041 15.3693 123.436 15.3693C123.697 15.3693 123.974 15.4006 124.267 15.4631C124.563 15.5227 124.838 15.6335 125.094 15.7955C125.352 15.9574 125.564 16.1889 125.729 16.4901C125.893 16.7884 125.976 17.1761 125.976 17.6534V22H124.732V21.1051H124.68C124.598 21.2699 124.474 21.4318 124.31 21.5909C124.145 21.75 123.933 21.8821 123.675 21.9872C123.416 22.0923 123.107 22.1449 122.746 22.1449ZM123.023 21.1222C123.375 21.1222 123.676 21.0526 123.926 20.9134C124.179 20.7741 124.371 20.5923 124.501 20.3679C124.635 20.1406 124.702 19.8977 124.702 19.6392V18.7955C124.656 18.8409 124.568 18.8835 124.438 18.9233C124.31 18.9602 124.163 18.9929 123.999 19.0213C123.834 19.0469 123.673 19.071 123.517 19.0938C123.361 19.1136 123.23 19.1307 123.125 19.1449C122.878 19.1761 122.652 19.2287 122.447 19.3026C122.246 19.3764 122.084 19.483 121.962 19.6222C121.842 19.7585 121.783 19.9403 121.783 20.1676C121.783 20.483 121.899 20.7216 122.132 20.8835C122.365 21.0426 122.662 21.1222 123.023 21.1222ZM130.123 22.1278C129.595 22.1278 129.123 21.9929 128.708 21.723C128.297 21.4503 127.973 21.0625 127.737 20.5597C127.504 20.054 127.387 19.4474 127.387 18.7401C127.387 18.0327 127.505 17.4276 127.741 16.9247C127.98 16.4219 128.306 16.0369 128.721 15.7699C129.136 15.5028 129.606 15.3693 130.132 15.3693C130.538 15.3693 130.865 15.4375 131.112 15.5739C131.362 15.7074 131.555 15.8636 131.691 16.0426C131.831 16.2216 131.939 16.3793 132.015 16.5156H132.092V13.2727H133.366V22H132.122V20.9815H132.015C131.939 21.1207 131.828 21.2798 131.683 21.4588C131.541 21.6378 131.345 21.794 131.095 21.9276C130.845 22.0611 130.521 22.1278 130.123 22.1278ZM130.404 21.0412C130.771 21.0412 131.081 20.9446 131.333 20.7514C131.589 20.5554 131.782 20.2841 131.913 19.9375C132.047 19.5909 132.113 19.1875 132.113 18.7273C132.113 18.2727 132.048 17.875 131.917 17.5341C131.787 17.1932 131.595 16.9276 131.342 16.7372C131.089 16.5469 130.777 16.4517 130.404 16.4517C130.021 16.4517 129.701 16.5511 129.446 16.75C129.19 16.9489 128.997 17.2202 128.866 17.5639C128.738 17.9077 128.674 18.2955 128.674 18.7273C128.674 19.1648 128.74 19.5582 128.87 19.9077C129.001 20.2571 129.194 20.5341 129.45 20.7386C129.708 20.9403 130.027 21.0412 130.404 21.0412ZM141.118 22.1321C140.504 22.1321 139.968 21.9915 139.511 21.7102C139.054 21.429 138.699 21.0355 138.446 20.5298C138.193 20.0241 138.066 19.4332 138.066 18.7571C138.066 18.0781 138.193 17.4844 138.446 16.9759C138.699 16.4673 139.054 16.0724 139.511 15.7912C139.968 15.5099 140.504 15.3693 141.118 15.3693C141.731 15.3693 142.267 15.5099 142.724 15.7912C143.181 16.0724 143.537 16.4673 143.789 16.9759C144.042 17.4844 144.169 18.0781 144.169 18.7571C144.169 19.4332 144.042 20.0241 143.789 20.5298C143.537 21.0355 143.181 21.429 142.724 21.7102C142.267 21.9915 141.731 22.1321 141.118 22.1321ZM141.122 21.0625C141.52 21.0625 141.849 20.9574 142.11 20.7472C142.372 20.5369 142.565 20.2571 142.69 19.9077C142.818 19.5582 142.882 19.1733 142.882 18.7528C142.882 18.3352 142.818 17.9517 142.69 17.6023C142.565 17.25 142.372 16.9673 142.11 16.7543C141.849 16.5412 141.52 16.4347 141.122 16.4347C140.721 16.4347 140.389 16.5412 140.125 16.7543C139.863 16.9673 139.669 17.25 139.541 17.6023C139.416 17.9517 139.353 18.3352 139.353 18.7528C139.353 19.1733 139.416 19.5582 139.541 19.9077C139.669 20.2571 139.863 20.5369 140.125 20.7472C140.389 20.9574 140.721 21.0625 141.122 21.0625ZM146.865 18.1136V22H145.591V15.4545H146.814V16.5199H146.895C147.045 16.1733 147.281 15.8949 147.602 15.6847C147.926 15.4744 148.334 15.3693 148.825 15.3693C149.271 15.3693 149.662 15.4631 149.997 15.6506C150.332 15.8352 150.592 16.1108 150.777 16.4773C150.962 16.8437 151.054 17.2969 151.054 17.8366V22H149.78V17.9901C149.78 17.5156 149.656 17.1449 149.409 16.8778C149.162 16.608 148.822 16.473 148.391 16.473C148.095 16.473 147.832 16.5369 147.602 16.6648C147.375 16.7926 147.195 16.9801 147.061 17.2273C146.93 17.4716 146.865 17.767 146.865 18.1136ZM158.994 15.4545V16.4773H155.419V15.4545H158.994ZM156.377 13.8864H157.652V20.0781C157.652 20.3253 157.689 20.5114 157.762 20.6364C157.836 20.7585 157.931 20.8423 158.048 20.8878C158.167 20.9304 158.297 20.9517 158.436 20.9517C158.538 20.9517 158.627 20.9446 158.704 20.9304C158.781 20.9162 158.841 20.9048 158.883 20.8963L159.113 21.9489C159.039 21.9773 158.934 22.0057 158.798 22.0341C158.662 22.0653 158.491 22.0824 158.287 22.0852C157.951 22.0909 157.639 22.0312 157.349 21.9062C157.059 21.7812 156.825 21.5881 156.646 21.3267C156.467 21.0653 156.377 20.7372 156.377 20.3423V13.8864ZM161.818 18.1136V22H160.544V13.2727H161.801V16.5199H161.882C162.036 16.1676 162.27 15.8878 162.585 15.6804C162.901 15.473 163.313 15.3693 163.821 15.3693C164.27 15.3693 164.662 15.4616 164.997 15.6463C165.335 15.831 165.597 16.1065 165.781 16.473C165.969 16.8366 166.062 17.2912 166.062 17.8366V22H164.788V17.9901C164.788 17.5099 164.665 17.1378 164.418 16.8736C164.17 16.6065 163.827 16.473 163.386 16.473C163.085 16.473 162.815 16.5369 162.577 16.6648C162.341 16.7926 162.155 16.9801 162.018 17.2273C161.885 17.4716 161.818 17.767 161.818 18.1136ZM170.584 22.1321C169.939 22.1321 169.384 21.9943 168.918 21.7188C168.455 21.4403 168.097 21.0497 167.844 20.5469C167.594 20.0412 167.469 19.4489 167.469 18.7699C167.469 18.0994 167.594 17.5085 167.844 16.9972C168.097 16.4858 168.449 16.0866 168.901 15.7997C169.355 15.5128 169.886 15.3693 170.494 15.3693C170.864 15.3693 171.222 15.4304 171.568 15.5526C171.915 15.6747 172.226 15.8665 172.501 16.1278C172.777 16.3892 172.994 16.7287 173.153 17.1463C173.313 17.5611 173.392 18.0653 173.392 18.6591V19.1108H168.189V18.1562H172.143C172.143 17.821 172.075 17.5241 171.939 17.2656C171.803 17.0043 171.611 16.7983 171.364 16.6477C171.119 16.4972 170.832 16.4219 170.503 16.4219C170.145 16.4219 169.832 16.5099 169.565 16.6861C169.301 16.8594 169.097 17.0866 168.952 17.3679C168.81 17.6463 168.739 17.9489 168.739 18.2756V19.0213C168.739 19.4588 168.815 19.831 168.969 20.1378C169.125 20.4446 169.342 20.679 169.621 20.8409C169.899 21 170.224 21.0795 170.597 21.0795C170.838 21.0795 171.058 21.0455 171.257 20.9773C171.456 20.9062 171.628 20.8011 171.773 20.6619C171.918 20.5227 172.028 20.3509 172.105 20.1463L173.311 20.3636C173.214 20.7187 173.041 21.0298 172.791 21.2969C172.544 21.5611 172.233 21.767 171.858 21.9148C171.486 22.0597 171.061 22.1321 170.584 22.1321Z" fill="#536666"/>
<defs>
<linearGradient id="paint0_linear_14_347" x1="43.8846" y1="23.1942" x2="35.8166" y2="31.3286" gradientUnits="userSpaceOnUse">
<stop stop-color="#00C3FF"/>
<stop offset="1" stop-color="#1BE2FA"/>
</linearGradient>
<linearGradient id="paint1_linear_14_347" x1="48.2114" y1="27.8291" x2="58.9422" y2="27.8291" gradientUnits="userSpaceOnUse">
<stop stop-color="#FFCE00"/>
<stop offset="1" stop-color="#FFEA00"/>
</linearGradient>
<linearGradient id="paint2_linear_14_347" x1="36.0964" y1="41.219" x2="50.3704" y2="29.7752" gradientUnits="userSpaceOnUse">
<stop stop-color="#DE2453"/>
<stop offset="1" stop-color="#FE3944"/>
</linearGradient>
<linearGradient id="paint3_linear_14_347" x1="36.7885" y1="14.7825" x2="50.3727" y2="25.8779" gradientUnits="userSpaceOnUse">
<stop stop-color="#11D574"/>
<stop offset="1" stop-color="#01F176"/>
</linearGradient>
</defs>
</svg>
