<svg width="199" height="56" viewBox="0 0 199 56" fill="none" xmlns="http://www.w3.org/2000/svg">
<rect x="0.5" width="198" height="56" rx="28" fill="white"/>
<path d="M55.8744 24.1861C55.7653 24.2529 53.1672 25.6637 53.1672 28.7918C53.2897 32.3591 56.4459 33.6102 56.5 33.6102C56.4459 33.677 56.0235 35.3144 54.7724 37.0308C53.7795 38.5093 52.6775 40 51.004 40C49.4121 40 48.8407 39.0146 47.004 39.0146C45.0315 39.0146 44.4733 40 42.9631 40C41.2897 40 40.106 38.4295 39.059 36.9648C37.6987 35.0479 36.5425 32.0396 36.5017 29.1512C36.4742 27.6206 36.7741 26.116 37.5354 24.8381C38.61 23.054 40.5284 21.8429 42.6233 21.8029C44.2285 21.75 45.657 22.8812 46.6366 22.8812C47.5754 22.8812 49.3305 21.8029 51.3163 21.8029C52.1735 21.8038 54.4592 22.0564 55.8744 24.1861ZM46.5009 21.4973C46.2151 20.0996 47.004 18.7018 47.7387 17.8102C48.6774 16.7319 50.1601 16 51.4388 16C51.5204 17.3978 51.0031 18.7686 50.0785 19.767C49.2489 20.8453 47.8203 21.6571 46.5009 21.4973Z" fill="#0C1717"/>
<path d="M84.004 41L83.188 38.36H79.636L78.82 41H76.58L80.372 29.8H82.452L86.244 41H84.004ZM81.412 32.552L80.228 36.44H82.596L81.412 32.552ZM95.146 36.968C95.146 39.448 93.898 41.128 91.466 41.128C90.65 41.128 89.866 40.712 89.514 40.264V44.264H87.53V32.936H89.514V33.768C89.738 33.352 90.474 32.808 91.466 32.808C93.898 32.808 95.146 34.488 95.146 36.968ZM93.066 36.968C93.066 35.368 92.234 34.504 91.194 34.504C90.154 34.504 89.338 35.368 89.338 36.968C89.338 38.568 90.154 39.432 91.194 39.432C92.234 39.432 93.066 38.568 93.066 36.968ZM104.693 36.968C104.693 39.448 103.445 41.128 101.013 41.128C100.197 41.128 99.4129 40.712 99.0609 40.264V44.264H97.0769V32.936H99.0609V33.768C99.2849 33.352 100.021 32.808 101.013 32.808C103.445 32.808 104.693 34.488 104.693 36.968ZM102.613 36.968C102.613 35.368 101.781 34.504 100.741 34.504C99.7009 34.504 98.8849 35.368 98.8849 36.968C98.8849 38.568 99.7009 39.432 100.741 39.432C101.781 39.432 102.613 38.568 102.613 36.968ZM116.864 31.704L115.184 32.776C114.752 31.944 114.288 31.592 113.632 31.592C113.024 31.592 112.56 32.024 112.56 32.616C112.56 34.568 117.344 34.312 117.344 37.64C117.344 39.832 115.904 41.128 113.76 41.128C111.728 41.128 110.256 39.704 109.904 37.992L111.584 36.936C111.92 38.136 112.592 39.208 113.808 39.208C114.672 39.208 115.264 38.776 115.264 37.752C115.264 35.896 110.576 36.264 110.576 32.712C110.576 31.016 111.872 29.672 113.632 29.672C115.12 29.672 116.256 30.408 116.864 31.704ZM123.375 39.24L123.839 40.84C123.391 41.048 122.959 41.128 122.527 41.128C120.703 41.128 119.567 40.152 119.567 38.152V34.632H118.319V32.936H119.567V30.92L121.551 29.672V32.936H123.679V34.632H121.551V38.12C121.551 39.112 121.935 39.432 122.607 39.432C122.879 39.432 123.103 39.384 123.375 39.24ZM124.907 36.968C124.907 34.632 126.411 32.808 129.003 32.808C131.595 32.808 133.099 34.632 133.099 36.968C133.099 39.304 131.595 41.128 129.003 41.128C126.411 41.128 124.907 39.304 124.907 36.968ZM126.987 36.968C126.987 38.296 127.723 39.432 129.003 39.432C130.283 39.432 131.019 38.296 131.019 36.968C131.019 35.64 130.283 34.504 129.003 34.504C127.723 34.504 126.987 35.64 126.987 36.968ZM136.827 41H134.843V32.936H136.827V34.248C137.403 33.304 138.299 32.808 139.211 32.808C139.563 32.808 139.867 32.872 140.187 32.968L139.819 34.808C139.579 34.664 139.323 34.584 138.987 34.584C137.835 34.584 136.827 35.528 136.827 38.136V41ZM148.664 36.792V37.608H143.112C143.16 38.504 143.784 39.432 145.016 39.432C145.928 39.432 146.488 39.016 146.968 38.184L148.568 38.776C147.944 40.2 146.856 41.128 144.904 41.128C142.136 41.128 141.032 38.872 141.032 36.968C141.032 35.064 142.136 32.808 144.904 32.808C147.592 32.808 148.664 35.032 148.664 36.792ZM144.904 34.504C143.896 34.504 143.304 35.272 143.16 36.04H146.632C146.456 35.24 145.96 34.504 144.904 34.504Z" fill="#0C1717"/>
<path d="M78.196 22H76.7983L79.9389 13.2727H81.4602L84.6009 22H83.2031L80.7358 14.858H80.6676L78.196 22ZM78.4304 18.5824H82.9645V19.6903H78.4304V18.5824ZM90.538 15.4545L88.1644 22H86.8008L84.4229 15.4545H85.7908L87.4485 20.4915H87.5167L89.1701 15.4545H90.538ZM93.4528 22.1449C93.038 22.1449 92.663 22.0682 92.3278 21.9148C91.9925 21.7585 91.7269 21.5327 91.5309 21.2372C91.3377 20.9418 91.2411 20.5795 91.2411 20.1506C91.2411 19.7812 91.3121 19.4773 91.4542 19.2386C91.5962 19 91.788 18.8111 92.0295 18.6719C92.271 18.5327 92.5408 18.4276 92.8391 18.3565C93.1374 18.2855 93.4414 18.2315 93.7511 18.1946C94.1431 18.1491 94.4613 18.1122 94.7056 18.0838C94.9499 18.0526 95.1275 18.0028 95.2383 17.9347C95.3491 17.8665 95.4045 17.7557 95.4045 17.6023V17.5724C95.4045 17.2003 95.2994 16.9119 95.0891 16.7074C94.8817 16.5028 94.5721 16.4006 94.1602 16.4006C93.7312 16.4006 93.3931 16.4957 93.146 16.6861C92.9016 16.8736 92.7326 17.0824 92.6388 17.3125L91.4414 17.0398C91.5835 16.642 91.7908 16.321 92.0636 16.0767C92.3391 15.8295 92.6559 15.6506 93.0138 15.5398C93.3718 15.4261 93.7482 15.3693 94.1431 15.3693C94.4045 15.3693 94.6815 15.4006 94.9741 15.4631C95.2695 15.5227 95.5451 15.6335 95.8008 15.7955C96.0593 15.9574 96.271 16.1889 96.4357 16.4901C96.6005 16.7884 96.6829 17.1761 96.6829 17.6534V22H95.4386V21.1051H95.3874C95.305 21.2699 95.1815 21.4318 95.0167 21.5909C94.8519 21.75 94.6403 21.8821 94.3817 21.9872C94.1232 22.0923 93.8136 22.1449 93.4528 22.1449ZM93.7298 21.1222C94.082 21.1222 94.3832 21.0526 94.6332 20.9134C94.886 20.7741 95.0778 20.5923 95.2085 20.3679C95.342 20.1406 95.4087 19.8977 95.4087 19.6392V18.7955C95.3633 18.8409 95.2752 18.8835 95.1445 18.9233C95.0167 18.9602 94.8704 18.9929 94.7056 19.0213C94.5408 19.0469 94.3803 19.071 94.2241 19.0938C94.0678 19.1136 93.9371 19.1307 93.832 19.1449C93.5849 19.1761 93.359 19.2287 93.1545 19.3026C92.9528 19.3764 92.7908 19.483 92.6687 19.6222C92.5494 19.7585 92.4897 19.9403 92.4897 20.1676C92.4897 20.483 92.6062 20.7216 92.8391 20.8835C93.0721 21.0426 93.369 21.1222 93.7298 21.1222ZM98.38 22V15.4545H99.6541V22H98.38ZM99.0234 14.4446C98.8018 14.4446 98.6115 14.3707 98.4524 14.223C98.2962 14.0724 98.218 13.8935 98.218 13.6861C98.218 13.4759 98.2962 13.2969 98.4524 13.1491C98.6115 12.9986 98.8018 12.9233 99.0234 12.9233C99.245 12.9233 99.4339 12.9986 99.5902 13.1491C99.7493 13.2969 99.8288 13.4759 99.8288 13.6861C99.8288 13.8935 99.7493 14.0724 99.5902 14.223C99.4339 14.3707 99.245 14.4446 99.0234 14.4446ZM102.642 13.2727V22H101.368V13.2727H102.642ZM106.261 22.1449C105.847 22.1449 105.472 22.0682 105.136 21.9148C104.801 21.7585 104.536 21.5327 104.339 21.2372C104.146 20.9418 104.05 20.5795 104.05 20.1506C104.05 19.7812 104.121 19.4773 104.263 19.2386C104.405 19 104.597 18.8111 104.838 18.6719C105.08 18.5327 105.349 18.4276 105.648 18.3565C105.946 18.2855 106.25 18.2315 106.56 18.1946C106.952 18.1491 107.27 18.1122 107.514 18.0838C107.759 18.0526 107.936 18.0028 108.047 17.9347C108.158 17.8665 108.213 17.7557 108.213 17.6023V17.5724C108.213 17.2003 108.108 16.9119 107.898 16.7074C107.69 16.5028 107.381 16.4006 106.969 16.4006C106.54 16.4006 106.202 16.4957 105.955 16.6861C105.71 16.8736 105.541 17.0824 105.447 17.3125L104.25 17.0398C104.392 16.642 104.599 16.321 104.872 16.0767C105.148 15.8295 105.464 15.6506 105.822 15.5398C106.18 15.4261 106.557 15.3693 106.952 15.3693C107.213 15.3693 107.49 15.4006 107.783 15.4631C108.078 15.5227 108.354 15.6335 108.609 15.7955C108.868 15.9574 109.08 16.1889 109.244 16.4901C109.409 16.7884 109.491 17.1761 109.491 17.6534V22H108.247V21.1051H108.196C108.114 21.2699 107.99 21.4318 107.825 21.5909C107.661 21.75 107.449 21.8821 107.19 21.9872C106.932 22.0923 106.622 22.1449 106.261 22.1449ZM106.538 21.1222C106.891 21.1222 107.192 21.0526 107.442 20.9134C107.695 20.7741 107.886 20.5923 108.017 20.3679C108.151 20.1406 108.217 19.8977 108.217 19.6392V18.7955C108.172 18.8409 108.084 18.8835 107.953 18.9233C107.825 18.9602 107.679 18.9929 107.514 19.0213C107.349 19.0469 107.189 19.071 107.033 19.0938C106.876 19.1136 106.746 19.1307 106.641 19.1449C106.393 19.1761 106.168 19.2287 105.963 19.3026C105.761 19.3764 105.599 19.483 105.477 19.6222C105.358 19.7585 105.298 19.9403 105.298 20.1676C105.298 20.483 105.415 20.7216 105.648 20.8835C105.881 21.0426 106.178 21.1222 106.538 21.1222ZM111.291 22V13.2727H112.565V16.5156H112.642C112.716 16.3793 112.822 16.2216 112.961 16.0426C113.1 15.8636 113.294 15.7074 113.541 15.5739C113.788 15.4375 114.115 15.3693 114.521 15.3693C115.049 15.3693 115.521 15.5028 115.936 15.7699C116.35 16.0369 116.676 16.4219 116.912 16.9247C117.15 17.4276 117.27 18.0327 117.27 18.7401C117.27 19.4474 117.152 20.054 116.916 20.5597C116.68 21.0625 116.356 21.4503 115.944 21.723C115.532 21.9929 115.062 22.1278 114.534 22.1278C114.136 22.1278 113.811 22.0611 113.558 21.9276C113.308 21.794 113.112 21.6378 112.97 21.4588C112.828 21.2798 112.718 21.1207 112.642 20.9815H112.535V22H111.291ZM112.539 18.7273C112.539 19.1875 112.606 19.5909 112.74 19.9375C112.873 20.2841 113.066 20.5554 113.319 20.7514C113.572 20.9446 113.882 21.0412 114.248 21.0412C114.629 21.0412 114.947 20.9403 115.203 20.7386C115.458 20.5341 115.652 20.2571 115.782 19.9077C115.916 19.5582 115.983 19.1648 115.983 18.7273C115.983 18.2955 115.917 17.9077 115.787 17.5639C115.659 17.2202 115.466 16.9489 115.207 16.75C114.951 16.5511 114.632 16.4517 114.248 16.4517C113.879 16.4517 113.566 16.5469 113.311 16.7372C113.058 16.9276 112.866 17.1932 112.735 17.5341C112.605 17.875 112.539 18.2727 112.539 18.7273ZM119.974 13.2727V22H118.7V13.2727H119.974ZM124.51 22.1321C123.865 22.1321 123.309 21.9943 122.843 21.7188C122.38 21.4403 122.022 21.0497 121.77 20.5469C121.52 20.0412 121.395 19.4489 121.395 18.7699C121.395 18.0994 121.52 17.5085 121.77 16.9972C122.022 16.4858 122.375 16.0866 122.826 15.7997C123.281 15.5128 123.812 15.3693 124.42 15.3693C124.789 15.3693 125.147 15.4304 125.494 15.5526C125.841 15.6747 126.152 15.8665 126.427 16.1278C126.703 16.3892 126.92 16.7287 127.079 17.1463C127.238 17.5611 127.318 18.0653 127.318 18.6591V19.1108H122.115V18.1562H126.069C126.069 17.821 126.001 17.5241 125.865 17.2656C125.728 17.0043 125.537 16.7983 125.289 16.6477C125.045 16.4972 124.758 16.4219 124.429 16.4219C124.071 16.4219 123.758 16.5099 123.491 16.6861C123.227 16.8594 123.022 17.0866 122.877 17.3679C122.735 17.6463 122.664 17.9489 122.664 18.2756V19.0213C122.664 19.4588 122.741 19.831 122.895 20.1378C123.051 20.4446 123.268 20.679 123.547 20.8409C123.825 21 124.15 21.0795 124.522 21.0795C124.764 21.0795 124.984 21.0455 125.183 20.9773C125.382 20.9062 125.554 20.8011 125.699 20.6619C125.843 20.5227 125.954 20.3509 126.031 20.1463L127.237 20.3636C127.14 20.7187 126.967 21.0298 126.717 21.2969C126.47 21.5611 126.159 21.767 125.784 21.9148C125.412 22.0597 124.987 22.1321 124.51 22.1321ZM134.664 22.1321C134.051 22.1321 133.515 21.9915 133.058 21.7102C132.6 21.429 132.245 21.0355 131.993 20.5298C131.74 20.0241 131.613 19.4332 131.613 18.7571C131.613 18.0781 131.74 17.4844 131.993 16.9759C132.245 16.4673 132.6 16.0724 133.058 15.7912C133.515 15.5099 134.051 15.3693 134.664 15.3693C135.278 15.3693 135.814 15.5099 136.271 15.7912C136.728 16.0724 137.083 16.4673 137.336 16.9759C137.589 17.4844 137.716 18.0781 137.716 18.7571C137.716 19.4332 137.589 20.0241 137.336 20.5298C137.083 21.0355 136.728 21.429 136.271 21.7102C135.814 21.9915 135.278 22.1321 134.664 22.1321ZM134.669 21.0625C135.066 21.0625 135.396 20.9574 135.657 20.7472C135.919 20.5369 136.112 20.2571 136.237 19.9077C136.365 19.5582 136.429 19.1733 136.429 18.7528C136.429 18.3352 136.365 17.9517 136.237 17.6023C136.112 17.25 135.919 16.9673 135.657 16.7543C135.396 16.5412 135.066 16.4347 134.669 16.4347C134.268 16.4347 133.936 16.5412 133.672 16.7543C133.41 16.9673 133.216 17.25 133.088 17.6023C132.963 17.9517 132.9 18.3352 132.9 18.7528C132.9 19.1733 132.963 19.5582 133.088 19.9077C133.216 20.2571 133.41 20.5369 133.672 20.7472C133.936 20.9574 134.268 21.0625 134.669 21.0625ZM140.412 18.1136V22H139.138V15.4545H140.361V16.5199H140.442C140.592 16.1733 140.828 15.8949 141.149 15.6847C141.473 15.4744 141.881 15.3693 142.372 15.3693C142.818 15.3693 143.209 15.4631 143.544 15.6506C143.879 15.8352 144.139 16.1108 144.324 16.4773C144.509 16.8437 144.601 17.2969 144.601 17.8366V22H143.327V17.9901C143.327 17.5156 143.203 17.1449 142.956 16.8778C142.709 16.608 142.369 16.473 141.938 16.473C141.642 16.473 141.379 16.5369 141.149 16.6648C140.922 16.7926 140.741 16.9801 140.608 17.2273C140.477 17.4716 140.412 17.767 140.412 18.1136ZM152.541 15.4545V16.4773H148.966V15.4545H152.541ZM149.924 13.8864H151.199V20.0781C151.199 20.3253 151.235 20.5114 151.309 20.6364C151.383 20.7585 151.478 20.8423 151.595 20.8878C151.714 20.9304 151.843 20.9517 151.983 20.9517C152.085 20.9517 152.174 20.9446 152.251 20.9304C152.328 20.9162 152.387 20.9048 152.43 20.8963L152.66 21.9489C152.586 21.9773 152.481 22.0057 152.345 22.0341C152.208 22.0653 152.038 22.0824 151.833 22.0852C151.498 22.0909 151.186 22.0312 150.896 21.9062C150.606 21.7812 150.372 21.5881 150.193 21.3267C150.014 21.0653 149.924 20.7372 149.924 20.3423V13.8864ZM155.365 18.1136V22H154.091V13.2727H155.348V16.5199H155.429C155.582 16.1676 155.817 15.8878 156.132 15.6804C156.447 15.473 156.859 15.3693 157.368 15.3693C157.817 15.3693 158.209 15.4616 158.544 15.6463C158.882 15.831 159.143 16.1065 159.328 16.473C159.516 16.8366 159.609 17.2912 159.609 17.8366V22H158.335V17.9901C158.335 17.5099 158.212 17.1378 157.964 16.8736C157.717 16.6065 157.374 16.473 156.933 16.473C156.632 16.473 156.362 16.5369 156.124 16.6648C155.888 16.7926 155.702 16.9801 155.565 17.2273C155.432 17.4716 155.365 17.767 155.365 18.1136ZM164.131 22.1321C163.486 22.1321 162.93 21.9943 162.464 21.7188C162.001 21.4403 161.643 21.0497 161.391 20.5469C161.141 20.0412 161.016 19.4489 161.016 18.7699C161.016 18.0994 161.141 17.5085 161.391 16.9972C161.643 16.4858 161.996 16.0866 162.447 15.7997C162.902 15.5128 163.433 15.3693 164.041 15.3693C164.411 15.3693 164.768 15.4304 165.115 15.5526C165.462 15.6747 165.773 15.8665 166.048 16.1278C166.324 16.3892 166.541 16.7287 166.7 17.1463C166.859 17.5611 166.939 18.0653 166.939 18.6591V19.1108H161.736V18.1562H165.69C165.69 17.821 165.622 17.5241 165.486 17.2656C165.349 17.0043 165.158 16.7983 164.911 16.6477C164.666 16.4972 164.379 16.4219 164.05 16.4219C163.692 16.4219 163.379 16.5099 163.112 16.6861C162.848 16.8594 162.643 17.0866 162.499 17.3679C162.357 17.6463 162.286 17.9489 162.286 18.2756V19.0213C162.286 19.4588 162.362 19.831 162.516 20.1378C162.672 20.4446 162.889 20.679 163.168 20.8409C163.446 21 163.771 21.0795 164.143 21.0795C164.385 21.0795 164.605 21.0455 164.804 20.9773C165.003 20.9062 165.175 20.8011 165.32 20.6619C165.464 20.5227 165.575 20.3509 165.652 20.1463L166.858 20.3636C166.761 20.7187 166.588 21.0298 166.338 21.2969C166.091 21.5611 165.78 21.767 165.405 21.9148C165.033 22.0597 164.608 22.1321 164.131 22.1321Z" fill="#536666"/>
</svg>
