<svg width="206" height="56" viewBox="0 0 206 56" fill="none" xmlns="http://www.w3.org/2000/svg">
<rect x="0.5" width="205" height="56" rx="28" fill="white"/>
<mask id="mask0_44_2090" style="mask-type:alpha" maskUnits="userSpaceOnUse" x="36" y="15" width="23" height="26">
<path d="M57.8578 26.5004C59.0474 27.155 59.0474 28.845 57.8578 29.4996L38.834 39.968C37.6755 40.6055 36.25 39.7782 36.25 38.4684L36.25 17.5316C36.25 16.2218 37.6755 15.3945 38.834 16.032L57.8578 26.5004Z" fill="#C4C4C4"/>
</mask>
<g mask="url(#mask0_44_2090)">
<path d="M36.8451 39.7621L48.7115 27.8289L37.0405 16.0923C36.5749 16.3908 36.25 16.9061 36.25 17.5314V38.4682C36.25 39.0016 36.4865 39.4551 36.8451 39.7621Z" fill="url(#paint0_linear_44_2090)"/>
<path d="M57.8577 26.5002C59.0472 27.1548 59.0472 28.8449 57.8577 29.4995L53.0584 32.1404L48.7114 27.8289L52.8367 23.7373L57.8577 26.5002Z" fill="url(#paint1_linear_44_2090)"/>
<path d="M53.0587 32.1406L48.7117 27.8291L36.8452 39.7623C37.367 40.2091 38.1475 40.3459 38.8342 39.968L53.0587 32.1406Z" fill="url(#paint2_linear_44_2090)"/>
<path d="M37.0405 16.0925L48.7115 27.8291L52.8368 23.7374L38.834 16.032C38.2285 15.6989 37.5502 15.7657 37.0405 16.0925Z" fill="url(#paint3_linear_44_2090)"/>
</g>
<path d="M86.332 41L86.156 39.8C85.724 40.456 84.876 41.128 83.436 41.128C80.732 41.128 78.268 39.224 78.268 35.4C78.268 31.576 80.828 29.672 83.596 29.672C86.092 29.672 87.676 31.16 88.252 33.208L86.348 33.704C85.82 32.424 84.956 31.592 83.596 31.592C81.804 31.592 80.38 32.792 80.38 35.4C80.38 38.088 81.804 39.208 83.548 39.208C85.196 39.208 85.932 38.088 86.06 37.08H83.98V35.352H88.076V41H86.332ZM89.938 36.968C89.938 34.632 91.442 32.808 94.034 32.808C96.626 32.808 98.13 34.632 98.13 36.968C98.13 39.304 96.626 41.128 94.034 41.128C91.442 41.128 89.938 39.304 89.938 36.968ZM92.018 36.968C92.018 38.296 92.754 39.432 94.034 39.432C95.314 39.432 96.05 38.296 96.05 36.968C96.05 35.64 95.314 34.504 94.034 34.504C92.754 34.504 92.018 35.64 92.018 36.968ZM99.6099 36.968C99.6099 34.632 101.114 32.808 103.706 32.808C106.298 32.808 107.802 34.632 107.802 36.968C107.802 39.304 106.298 41.128 103.706 41.128C101.114 41.128 99.6099 39.304 99.6099 36.968ZM101.69 36.968C101.69 38.296 102.426 39.432 103.706 39.432C104.986 39.432 105.722 38.296 105.722 36.968C105.722 35.64 104.986 34.504 103.706 34.504C102.426 34.504 101.69 35.64 101.69 36.968ZM109.734 35.528C109.734 33.848 111.062 32.808 112.694 32.808C113.238 32.808 113.734 32.936 114.182 33.16L115.702 32.36L116.486 33.672L115.334 34.248C115.542 34.616 115.654 35.048 115.654 35.528C115.654 37.224 114.326 38.216 112.694 38.216C112.278 38.216 111.878 38.152 111.526 38.04C111.286 38.184 111.142 38.392 111.142 38.648C111.142 39.032 111.414 39.24 111.894 39.24H113.542C115.238 39.24 116.374 40.056 116.374 41.608C116.374 43.592 114.502 44.392 112.71 44.392C110.646 44.392 109.062 43.496 109.062 41.736C109.062 41.08 109.302 40.52 109.718 40.136C109.462 39.832 109.302 39.4 109.302 38.888C109.302 38.12 109.702 37.544 110.294 37.192C109.942 36.76 109.734 36.2 109.734 35.528ZM113.094 40.904H112.006C111.67 40.904 111.366 40.888 111.078 40.84C110.95 41.032 110.902 41.272 110.902 41.576C110.902 42.344 111.67 42.728 112.71 42.728C113.654 42.728 114.39 42.456 114.39 41.736C114.39 41.064 113.846 40.904 113.094 40.904ZM111.59 35.528C111.59 36.184 112.054 36.616 112.694 36.616C113.334 36.616 113.798 36.184 113.798 35.528C113.798 34.856 113.334 34.408 112.694 34.408C112.054 34.408 111.59 34.856 111.59 35.528ZM117.982 29.672H119.966V41H117.982V29.672ZM129.445 36.792V37.608H123.893C123.941 38.504 124.565 39.432 125.797 39.432C126.709 39.432 127.269 39.016 127.749 38.184L129.349 38.776C128.725 40.2 127.637 41.128 125.685 41.128C122.917 41.128 121.813 38.872 121.813 36.968C121.813 35.064 122.917 32.808 125.685 32.808C128.373 32.808 129.445 35.032 129.445 36.792ZM125.685 34.504C124.677 34.504 124.085 35.272 123.941 36.04H127.413C127.237 35.24 126.741 34.504 125.685 34.504ZM139.648 36.616H137.504V41H135.424V29.8H139.648C142.016 29.8 143.152 31.256 143.152 33.208C143.152 35.16 142.016 36.616 139.648 36.616ZM139.568 34.696C140.48 34.696 141.04 34.232 141.04 33.208C141.04 32.184 140.48 31.72 139.568 31.72H137.504V34.696H139.568ZM144.701 29.672H146.685V41H144.701V29.672ZM150.451 35.432L148.771 35.048C149.027 33.72 150.195 32.808 151.843 32.808C153.763 32.808 155.235 33.608 155.235 36.184V41H153.603L153.395 39.976C152.835 40.664 152.067 41.128 150.915 41.128C149.539 41.128 148.467 40.28 148.467 38.68C148.467 37.08 149.875 36.04 151.907 36.04H153.251V35.688C153.251 34.792 152.579 34.504 151.843 34.504C151.283 34.504 150.707 34.68 150.451 35.432ZM150.547 38.648C150.547 39.032 150.819 39.432 151.379 39.432C152.291 39.432 153.251 38.808 153.251 37.768V37.608H151.923C151.075 37.608 150.547 37.928 150.547 38.648ZM156.079 32.936H158.079L159.951 37.992L161.711 32.936H163.695L159.535 44.264H157.615L159.007 40.488L156.079 32.936Z" fill="#0C1717"/>
<path d="M81.2841 22H78.4588V13.2727H81.3736C82.2287 13.2727 82.9631 13.4474 83.5767 13.7969C84.1903 14.1435 84.6605 14.642 84.9872 15.2926C85.3168 15.9403 85.4815 16.7173 85.4815 17.6236C85.4815 18.5327 85.3153 19.3139 84.983 19.9673C84.6534 20.6207 84.1761 21.1236 83.5511 21.4759C82.9261 21.8253 82.1705 22 81.2841 22ZM79.7756 20.8494H81.2116C81.8764 20.8494 82.429 20.7244 82.8693 20.4744C83.3097 20.2216 83.6392 19.8565 83.858 19.3793C84.0767 18.8991 84.1861 18.3139 84.1861 17.6236C84.1861 16.9389 84.0767 16.358 83.858 15.8807C83.642 15.4034 83.3196 15.0412 82.8906 14.794C82.4616 14.5469 81.929 14.4233 81.2926 14.4233H79.7756V20.8494ZM89.7738 22.1321C89.1602 22.1321 88.6246 21.9915 88.1673 21.7102C87.7099 21.429 87.3548 21.0355 87.1019 20.5298C86.8491 20.0241 86.7227 19.4332 86.7227 18.7571C86.7227 18.0781 86.8491 17.4844 87.1019 16.9759C87.3548 16.4673 87.7099 16.0724 88.1673 15.7912C88.6246 15.5099 89.1602 15.3693 89.7738 15.3693C90.3874 15.3693 90.9229 15.5099 91.3803 15.7912C91.8377 16.0724 92.1928 16.4673 92.4457 16.9759C92.6985 17.4844 92.8249 18.0781 92.8249 18.7571C92.8249 19.4332 92.6985 20.0241 92.4457 20.5298C92.1928 21.0355 91.8377 21.429 91.3803 21.7102C90.9229 21.9915 90.3874 22.1321 89.7738 22.1321ZM89.7781 21.0625C90.1758 21.0625 90.5053 20.9574 90.7667 20.7472C91.0281 20.5369 91.2212 20.2571 91.3462 19.9077C91.4741 19.5582 91.538 19.1733 91.538 18.7528C91.538 18.3352 91.4741 17.9517 91.3462 17.6023C91.2212 17.25 91.0281 16.9673 90.7667 16.7543C90.5053 16.5412 90.1758 16.4347 89.7781 16.4347C89.3775 16.4347 89.0451 16.5412 88.7809 16.7543C88.5195 16.9673 88.3249 17.25 88.1971 17.6023C88.0721 17.9517 88.0096 18.3352 88.0096 18.7528C88.0096 19.1733 88.0721 19.5582 88.1971 19.9077C88.3249 20.2571 88.5195 20.5369 88.7809 20.7472C89.0451 20.9574 89.3775 21.0625 89.7781 21.0625ZM95.467 22L93.5408 15.4545H94.8576L96.1403 20.2614H96.2042L97.4911 15.4545H98.8079L100.086 20.2401H100.15L101.424 15.4545H102.741L100.819 22H99.5195L98.19 17.2741H98.092L96.7624 22H95.467ZM105.224 18.1136V22H103.95V15.4545H105.173V16.5199H105.254C105.405 16.1733 105.641 15.8949 105.962 15.6847C106.286 15.4744 106.693 15.3693 107.185 15.3693C107.631 15.3693 108.021 15.4631 108.357 15.6506C108.692 15.8352 108.952 16.1108 109.136 16.4773C109.321 16.8437 109.413 17.2969 109.413 17.8366V22H108.139V17.9901C108.139 17.5156 108.016 17.1449 107.768 16.8778C107.521 16.608 107.182 16.473 106.75 16.473C106.455 16.473 106.192 16.5369 105.962 16.6648C105.734 16.7926 105.554 16.9801 105.42 17.2273C105.29 17.4716 105.224 17.767 105.224 18.1136ZM112.396 13.2727V22H111.122V13.2727H112.396ZM116.868 22.1321C116.254 22.1321 115.718 21.9915 115.261 21.7102C114.804 21.429 114.449 21.0355 114.196 20.5298C113.943 20.0241 113.816 19.4332 113.816 18.7571C113.816 18.0781 113.943 17.4844 114.196 16.9759C114.449 16.4673 114.804 16.0724 115.261 15.7912C115.718 15.5099 116.254 15.3693 116.868 15.3693C117.481 15.3693 118.017 15.5099 118.474 15.7912C118.931 16.0724 119.287 16.4673 119.539 16.9759C119.792 17.4844 119.919 18.0781 119.919 18.7571C119.919 19.4332 119.792 20.0241 119.539 20.5298C119.287 21.0355 118.931 21.429 118.474 21.7102C118.017 21.9915 117.481 22.1321 116.868 22.1321ZM116.872 21.0625C117.27 21.0625 117.599 20.9574 117.86 20.7472C118.122 20.5369 118.315 20.2571 118.44 19.9077C118.568 19.5582 118.632 19.1733 118.632 18.7528C118.632 18.3352 118.568 17.9517 118.44 17.6023C118.315 17.25 118.122 16.9673 117.86 16.7543C117.599 16.5412 117.27 16.4347 116.872 16.4347C116.471 16.4347 116.139 16.5412 115.875 16.7543C115.613 16.9673 115.419 17.25 115.291 17.6023C115.166 17.9517 115.103 18.3352 115.103 18.7528C115.103 19.1733 115.166 19.5582 115.291 19.9077C115.419 20.2571 115.613 20.5369 115.875 20.7472C116.139 20.9574 116.471 21.0625 116.872 21.0625ZM123.246 22.1449C122.831 22.1449 122.456 22.0682 122.121 21.9148C121.786 21.7585 121.52 21.5327 121.324 21.2372C121.131 20.9418 121.034 20.5795 121.034 20.1506C121.034 19.7812 121.105 19.4773 121.247 19.2386C121.389 19 121.581 18.8111 121.822 18.6719C122.064 18.5327 122.334 18.4276 122.632 18.3565C122.93 18.2855 123.234 18.2315 123.544 18.1946C123.936 18.1491 124.254 18.1122 124.499 18.0838C124.743 18.0526 124.92 18.0028 125.031 17.9347C125.142 17.8665 125.197 17.7557 125.197 17.6023V17.5724C125.197 17.2003 125.092 16.9119 124.882 16.7074C124.675 16.5028 124.365 16.4006 123.953 16.4006C123.524 16.4006 123.186 16.4957 122.939 16.6861C122.695 16.8736 122.526 17.0824 122.432 17.3125L121.234 17.0398C121.376 16.642 121.584 16.321 121.857 16.0767C122.132 15.8295 122.449 15.6506 122.807 15.5398C123.165 15.4261 123.541 15.3693 123.936 15.3693C124.197 15.3693 124.474 15.4006 124.767 15.4631C125.063 15.5227 125.338 15.6335 125.594 15.7955C125.852 15.9574 126.064 16.1889 126.229 16.4901C126.393 16.7884 126.476 17.1761 126.476 17.6534V22H125.232V21.1051H125.18C125.098 21.2699 124.974 21.4318 124.81 21.5909C124.645 21.75 124.433 21.8821 124.175 21.9872C123.916 22.0923 123.607 22.1449 123.246 22.1449ZM123.523 21.1222C123.875 21.1222 124.176 21.0526 124.426 20.9134C124.679 20.7741 124.871 20.5923 125.001 20.3679C125.135 20.1406 125.202 19.8977 125.202 19.6392V18.7955C125.156 18.8409 125.068 18.8835 124.938 18.9233C124.81 18.9602 124.663 18.9929 124.499 19.0213C124.334 19.0469 124.173 19.071 124.017 19.0938C123.861 19.1136 123.73 19.1307 123.625 19.1449C123.378 19.1761 123.152 19.2287 122.947 19.3026C122.746 19.3764 122.584 19.483 122.462 19.6222C122.342 19.7585 122.283 19.9403 122.283 20.1676C122.283 20.483 122.399 20.7216 122.632 20.8835C122.865 21.0426 123.162 21.1222 123.523 21.1222ZM130.623 22.1278C130.095 22.1278 129.623 21.9929 129.208 21.723C128.797 21.4503 128.473 21.0625 128.237 20.5597C128.004 20.054 127.887 19.4474 127.887 18.7401C127.887 18.0327 128.005 17.4276 128.241 16.9247C128.48 16.4219 128.806 16.0369 129.221 15.7699C129.636 15.5028 130.106 15.3693 130.632 15.3693C131.038 15.3693 131.365 15.4375 131.612 15.5739C131.862 15.7074 132.055 15.8636 132.191 16.0426C132.331 16.2216 132.439 16.3793 132.515 16.5156H132.592V13.2727H133.866V22H132.622V20.9815H132.515C132.439 21.1207 132.328 21.2798 132.183 21.4588C132.041 21.6378 131.845 21.794 131.595 21.9276C131.345 22.0611 131.021 22.1278 130.623 22.1278ZM130.904 21.0412C131.271 21.0412 131.581 20.9446 131.833 20.7514C132.089 20.5554 132.282 20.2841 132.413 19.9375C132.547 19.5909 132.613 19.1875 132.613 18.7273C132.613 18.2727 132.548 17.875 132.417 17.5341C132.287 17.1932 132.095 16.9276 131.842 16.7372C131.589 16.5469 131.277 16.4517 130.904 16.4517C130.521 16.4517 130.201 16.5511 129.946 16.75C129.69 16.9489 129.497 17.2202 129.366 17.5639C129.238 17.9077 129.174 18.2955 129.174 18.7273C129.174 19.1648 129.24 19.5582 129.37 19.9077C129.501 20.2571 129.694 20.5341 129.95 20.7386C130.208 20.9403 130.527 21.0412 130.904 21.0412ZM141.618 22.1321C141.004 22.1321 140.468 21.9915 140.011 21.7102C139.554 21.429 139.199 21.0355 138.946 20.5298C138.693 20.0241 138.566 19.4332 138.566 18.7571C138.566 18.0781 138.693 17.4844 138.946 16.9759C139.199 16.4673 139.554 16.0724 140.011 15.7912C140.468 15.5099 141.004 15.3693 141.618 15.3693C142.231 15.3693 142.767 15.5099 143.224 15.7912C143.681 16.0724 144.037 16.4673 144.289 16.9759C144.542 17.4844 144.669 18.0781 144.669 18.7571C144.669 19.4332 144.542 20.0241 144.289 20.5298C144.037 21.0355 143.681 21.429 143.224 21.7102C142.767 21.9915 142.231 22.1321 141.618 22.1321ZM141.622 21.0625C142.02 21.0625 142.349 20.9574 142.61 20.7472C142.872 20.5369 143.065 20.2571 143.19 19.9077C143.318 19.5582 143.382 19.1733 143.382 18.7528C143.382 18.3352 143.318 17.9517 143.19 17.6023C143.065 17.25 142.872 16.9673 142.61 16.7543C142.349 16.5412 142.02 16.4347 141.622 16.4347C141.221 16.4347 140.889 16.5412 140.625 16.7543C140.363 16.9673 140.169 17.25 140.041 17.6023C139.916 17.9517 139.853 18.3352 139.853 18.7528C139.853 19.1733 139.916 19.5582 140.041 19.9077C140.169 20.2571 140.363 20.5369 140.625 20.7472C140.889 20.9574 141.221 21.0625 141.622 21.0625ZM147.365 18.1136V22H146.091V15.4545H147.314V16.5199H147.395C147.545 16.1733 147.781 15.8949 148.102 15.6847C148.426 15.4744 148.834 15.3693 149.325 15.3693C149.771 15.3693 150.162 15.4631 150.497 15.6506C150.832 15.8352 151.092 16.1108 151.277 16.4773C151.462 16.8437 151.554 17.2969 151.554 17.8366V22H150.28V17.9901C150.28 17.5156 150.156 17.1449 149.909 16.8778C149.662 16.608 149.322 16.473 148.891 16.473C148.595 16.473 148.332 16.5369 148.102 16.6648C147.875 16.7926 147.695 16.9801 147.561 17.2273C147.43 17.4716 147.365 17.767 147.365 18.1136ZM159.494 15.4545V16.4773H155.919V15.4545H159.494ZM156.877 13.8864H158.152V20.0781C158.152 20.3253 158.189 20.5114 158.262 20.6364C158.336 20.7585 158.431 20.8423 158.548 20.8878C158.667 20.9304 158.797 20.9517 158.936 20.9517C159.038 20.9517 159.127 20.9446 159.204 20.9304C159.281 20.9162 159.341 20.9048 159.383 20.8963L159.613 21.9489C159.539 21.9773 159.434 22.0057 159.298 22.0341C159.162 22.0653 158.991 22.0824 158.787 22.0852C158.451 22.0909 158.139 22.0312 157.849 21.9062C157.559 21.7812 157.325 21.5881 157.146 21.3267C156.967 21.0653 156.877 20.7372 156.877 20.3423V13.8864ZM162.318 18.1136V22H161.044V13.2727H162.301V16.5199H162.382C162.536 16.1676 162.77 15.8878 163.085 15.6804C163.401 15.473 163.813 15.3693 164.321 15.3693C164.77 15.3693 165.162 15.4616 165.497 15.6463C165.835 15.831 166.097 16.1065 166.281 16.473C166.469 16.8366 166.562 17.2912 166.562 17.8366V22H165.288V17.9901C165.288 17.5099 165.165 17.1378 164.918 16.8736C164.67 16.6065 164.327 16.473 163.886 16.473C163.585 16.473 163.315 16.5369 163.077 16.6648C162.841 16.7926 162.655 16.9801 162.518 17.2273C162.385 17.4716 162.318 17.767 162.318 18.1136ZM171.084 22.1321C170.439 22.1321 169.884 21.9943 169.418 21.7188C168.955 21.4403 168.597 21.0497 168.344 20.5469C168.094 20.0412 167.969 19.4489 167.969 18.7699C167.969 18.0994 168.094 17.5085 168.344 16.9972C168.597 16.4858 168.949 16.0866 169.401 15.7997C169.855 15.5128 170.386 15.3693 170.994 15.3693C171.364 15.3693 171.722 15.4304 172.068 15.5526C172.415 15.6747 172.726 15.8665 173.001 16.1278C173.277 16.3892 173.494 16.7287 173.653 17.1463C173.813 17.5611 173.892 18.0653 173.892 18.6591V19.1108H168.689V18.1562H172.643C172.643 17.821 172.575 17.5241 172.439 17.2656C172.303 17.0043 172.111 16.7983 171.864 16.6477C171.619 16.4972 171.332 16.4219 171.003 16.4219C170.645 16.4219 170.332 16.5099 170.065 16.6861C169.801 16.8594 169.597 17.0866 169.452 17.3679C169.31 17.6463 169.239 17.9489 169.239 18.2756V19.0213C169.239 19.4588 169.315 19.831 169.469 20.1378C169.625 20.4446 169.842 20.679 170.121 20.8409C170.399 21 170.724 21.0795 171.097 21.0795C171.338 21.0795 171.558 21.0455 171.757 20.9773C171.956 20.9062 172.128 20.8011 172.273 20.6619C172.418 20.5227 172.528 20.3509 172.605 20.1463L173.811 20.3636C173.714 20.7187 173.541 21.0298 173.291 21.2969C173.044 21.5611 172.733 21.767 172.358 21.9148C171.986 22.0597 171.561 22.1321 171.084 22.1321Z" fill="#536666"/>
<defs>
<linearGradient id="paint0_linear_44_2090" x1="44.3846" y1="23.194" x2="36.3166" y2="31.3283" gradientUnits="userSpaceOnUse">
<stop stop-color="#00C3FF"/>
<stop offset="1" stop-color="#1BE2FA"/>
</linearGradient>
<linearGradient id="paint1_linear_44_2090" x1="48.7114" y1="27.829" x2="59.4422" y2="27.829" gradientUnits="userSpaceOnUse">
<stop stop-color="#FFCE00"/>
<stop offset="1" stop-color="#FFEA00"/>
</linearGradient>
<linearGradient id="paint2_linear_44_2090" x1="36.5964" y1="41.219" x2="50.8704" y2="29.7752" gradientUnits="userSpaceOnUse">
<stop stop-color="#DE2453"/>
<stop offset="1" stop-color="#FE3944"/>
</linearGradient>
<linearGradient id="paint3_linear_44_2090" x1="37.2884" y1="14.7825" x2="50.8726" y2="25.8779" gradientUnits="userSpaceOnUse">
<stop stop-color="#11D574"/>
<stop offset="1" stop-color="#01F176"/>
</linearGradient>
</defs>
</svg>
