<svg width="579" height="530" viewBox="0 0 579 530" fill="none" xmlns="http://www.w3.org/2000/svg">
<ellipse opacity="0.5" cx="287.922" cy="298.687" rx="229" ry="223.313" fill="url(#paint0_linear_48_2979)"/>
<rect width="49.3655" height="14.197" rx="7.09851" transform="matrix(0.966006 0.258521 -0.247159 0.968975 403.741 75.0278)" fill="#DDDDDD"/>
<g filter="url(#filter0_d_48_2979)">
<rect width="235.212" height="434.429" rx="27.5246" transform="matrix(0.966006 0.258521 -0.247159 0.968975 316.784 40)" fill="white"/>
</g>
<rect width="94.5352" height="44.9818" rx="4" transform="matrix(0.965778 0.25941 -0.248394 0.968644 252.763 353.012)" fill="#F2F5F5"/>
<rect width="62.282" height="4.88933" rx="2.44466" transform="matrix(0.965778 0.25941 -0.248394 0.968644 240.132 402.267)" fill="#F2F5F5"/>
<rect width="94.5352" height="4.88933" rx="2.44466" transform="matrix(0.965778 0.25941 -0.248394 0.968644 237.46 412.686)" fill="#F2F5F5"/>
<rect width="77.8525" height="4.88933" rx="2.44466" transform="matrix(0.965778 0.25941 -0.248394 0.968644 234.789 423.105)" fill="#F2F5F5"/>
<rect width="94.5352" height="44.9818" rx="4" transform="matrix(0.965778 0.25941 -0.248394 0.968644 359.101 381.574)" fill="#E1EBEB"/>
<rect width="62.282" height="4.88933" rx="2.44466" transform="matrix(0.965778 0.25941 -0.248394 0.968644 346.47 430.829)" fill="#E1EBEB"/>
<rect width="94.5352" height="4.88933" rx="2.44466" transform="matrix(0.965778 0.25941 -0.248394 0.968644 343.798 441.248)" fill="#E1EBEB"/>
<rect width="77.8525" height="4.88933" rx="2.44466" transform="matrix(0.965778 0.25941 -0.248394 0.968644 341.127 451.668)" fill="#E1EBEB"/>
<rect opacity="0.5" width="71.6763" height="11.7344" rx="5.8672" transform="matrix(0.965778 0.25941 -0.248394 0.968644 308.143 137.05)" fill="#B6C5C5"/>
<rect opacity="0.5" width="136.477" height="15.0002" rx="7.50012" transform="matrix(0.966252 0.257642 -0.245425 0.969399 353.864 97.9513)" fill="#B6C5C5"/>
<rect width="204.641" height="186.772" rx="10" transform="matrix(0.965778 0.25941 -0.248394 0.968644 302.314 159.782)" fill="#F2F5F5"/>
<rect width="18.6982" height="5.8672" rx="2.9336" transform="matrix(0.965778 0.25941 -0.248394 0.968644 275.827 325.796)" fill="#E27A7A"/>
<rect width="18.6982" height="5.8672" rx="2.9336" transform="matrix(0.965778 0.25941 -0.248394 0.968644 420.293 364.6)" fill="#AEE27A"/>
<rect width="117.383" height="10.7565" rx="5.37826" transform="matrix(0.965778 0.25941 -0.248394 0.968644 309.495 181.961)" fill="#DBE2E2"/>
<rect width="179.71" height="4.88933" rx="2.44466" transform="matrix(0.965778 0.25941 -0.248394 0.968644 305.123 199.01)" fill="#DBE2E2"/>
<rect width="179.71" height="4.88933" rx="2.44466" transform="matrix(0.965778 0.25941 -0.248394 0.968644 297.35 229.32)" fill="#DBE2E2"/>
<rect width="128.81" height="4.88933" rx="2.44466" transform="matrix(0.965778 0.25941 -0.248394 0.968644 289.577 259.631)" fill="#DBE2E2"/>
<rect width="128.81" height="4.88933" rx="2.44466" transform="matrix(0.965778 0.25941 -0.248394 0.968644 281.805 289.941)" fill="#DBE2E2"/>
<rect width="148.546" height="4.88933" rx="2.44466" transform="matrix(0.965778 0.25941 -0.248394 0.968644 301.236 214.165)" fill="#DBE2E2"/>
<rect width="157.896" height="4.88933" rx="2.44466" transform="matrix(0.965778 0.25941 -0.248394 0.968644 293.464 244.476)" fill="#DBE2E2"/>
<rect width="165.167" height="4.88933" rx="2.44466" transform="matrix(0.965778 0.25941 -0.248394 0.968644 285.691 274.786)" fill="#DBE2E2"/>
<rect width="148.546" height="4.88933" rx="2.44466" transform="matrix(0.965778 0.25941 -0.248394 0.968644 277.918 305.097)" fill="#DBE2E2"/>
<rect width="49.3655" height="14.1972" rx="7.09862" transform="matrix(0.966006 -0.258521 0.271036 0.962569 106.842 87.9066)" fill="#DDDDDD"/>
<g filter="url(#filter1_d_48_2979)">
<rect width="235.212" height="434.435" rx="27.5246" transform="matrix(0.966006 -0.258521 0.271036 0.962569 14 100.996)" fill="white"/>
</g>
<rect width="94.5352" height="44.9825" rx="4" transform="matrix(0.966253 -0.257639 0.2698 0.9629 115.255 404.044)" fill="#E1EBEB"/>
<rect width="62.282" height="4.88941" rx="2.4447" transform="matrix(0.966253 -0.257639 0.2698 0.9629 128.975 453.007)" fill="#E1EBEB"/>
<rect width="94.5352" height="4.88941" rx="2.4447" transform="matrix(0.966253 -0.257639 0.2698 0.9629 131.877 463.365)" fill="#E1EBEB"/>
<rect width="77.8525" height="4.88941" rx="2.4447" transform="matrix(0.966253 -0.257639 0.2698 0.9629 134.779 473.723)" fill="#E1EBEB"/>
<rect width="94.5352" height="44.9825" rx="4" transform="matrix(0.966253 -0.257639 0.2698 0.9629 221.646 375.676)" fill="#E1EBEB"/>
<rect width="62.282" height="4.88941" rx="2.4447" transform="matrix(0.966253 -0.257639 0.2698 0.9629 235.365 424.64)" fill="#E1EBEB"/>
<rect width="94.5352" height="4.88941" rx="2.4447" transform="matrix(0.966253 -0.257639 0.2698 0.9629 238.267 434.997)" fill="#E1EBEB"/>
<rect width="77.8525" height="4.88941" rx="2.4447" transform="matrix(0.966253 -0.257639 0.2698 0.9629 241.169 445.354)" fill="#E1EBEB"/>
<rect opacity="0.5" width="71.6763" height="11.7346" rx="5.86729" transform="matrix(0.966253 -0.257639 0.2698 0.9629 55.1016 189.359)" fill="#B6C5C5"/>
<rect opacity="0.5" width="136.477" height="15.0002" rx="7.50012" transform="matrix(0.966253 -0.257639 0.2698 0.9629 73 134.162)" fill="#B6C5C5"/>
<rect width="204.641" height="186.775" rx="10" transform="matrix(0.966253 -0.257639 0.2698 0.9629 61.4336 211.957)" fill="#F2F5F5"/>
<rect width="18.6982" height="5.86729" rx="2.93364" transform="matrix(0.966253 -0.257639 0.2698 0.9629 121.605 368.956)" fill="#6ACFE6"/>
<rect width="18.6982" height="5.86729" rx="2.93364" transform="matrix(0.966253 -0.257639 0.2698 0.9629 266.142 330.417)" fill="#A0E15F"/>
<rect width="117.383" height="10.7567" rx="5.37835" transform="matrix(0.966253 -0.257639 0.2698 0.9629 78.7551 227.578)" fill="#DBE2E2"/>
<rect width="179.71" height="4.88941" rx="2.4447" transform="matrix(0.966253 -0.257639 0.2698 0.9629 83.504 244.526)" fill="#DBE2E2"/>
<rect width="179.71" height="4.88941" rx="2.4447" transform="matrix(0.966253 -0.257639 0.2698 0.9629 91.9468 274.657)" fill="#DBE2E2"/>
<rect width="128.81" height="4.88941" rx="2.4447" transform="matrix(0.966253 -0.257639 0.2698 0.9629 100.389 304.788)" fill="#DBE2E2"/>
<rect width="128.81" height="4.88941" rx="2.4447" transform="matrix(0.966253 -0.257639 0.2698 0.9629 108.832 334.92)" fill="#DBE2E2"/>
<rect width="148.546" height="4.88941" rx="2.4447" transform="matrix(0.966253 -0.257639 0.2698 0.9629 87.7253 259.592)" fill="#DBE2E2"/>
<rect width="157.896" height="4.88941" rx="2.4447" transform="matrix(0.966253 -0.257639 0.2698 0.9629 96.168 289.723)" fill="#DBE2E2"/>
<rect width="165.167" height="4.88941" rx="2.4447" transform="matrix(0.966253 -0.257639 0.2698 0.9629 104.611 319.854)" fill="#DBE2E2"/>
<rect width="148.546" height="4.88941" rx="2.4447" transform="matrix(0.966253 -0.257639 0.2698 0.9629 113.053 349.986)" fill="#DBE2E2"/>
<defs>
<filter id="filter0_d_48_2979" x="195.351" y="0.175903" width="382.709" height="529.406" filterUnits="userSpaceOnUse" color-interpolation-filters="sRGB">
<feFlood flood-opacity="0" result="BackgroundImageFix"/>
<feColorMatrix in="SourceAlpha" type="matrix" values="0 0 0 0 0 0 0 0 0 0 0 0 0 0 0 0 0 0 127 0" result="hardAlpha"/>
<feOffset dx="10" dy="-16"/>
<feGaussianBlur stdDeviation="15"/>
<feComposite in2="hardAlpha" operator="out"/>
<feColorMatrix type="matrix" values="0 0 0 0 0.0470588 0 0 0 0 0.0901961 0 0 0 0 0.0901961 0 0 0 0.05 0"/>
<feBlend mode="normal" in2="BackgroundImageFix" result="effect1_dropShadow_48_2979"/>
<feBlend mode="normal" in="SourceGraphic" in2="effect1_dropShadow_48_2979" result="shape"/>
</filter>
<filter id="filter1_d_48_2979" x="0.426392" y="0.359009" width="392.111" height="526.642" filterUnits="userSpaceOnUse" color-interpolation-filters="sRGB">
<feFlood flood-opacity="0" result="BackgroundImageFix"/>
<feColorMatrix in="SourceAlpha" type="matrix" values="0 0 0 0 0 0 0 0 0 0 0 0 0 0 0 0 0 0 127 0" result="hardAlpha"/>
<feOffset dx="10" dy="-16"/>
<feGaussianBlur stdDeviation="15"/>
<feComposite in2="hardAlpha" operator="out"/>
<feColorMatrix type="matrix" values="0 0 0 0 0.0470588 0 0 0 0 0.0901961 0 0 0 0 0.0901961 0 0 0 0.05 0"/>
<feBlend mode="normal" in2="BackgroundImageFix" result="effect1_dropShadow_48_2979"/>
<feBlend mode="normal" in="SourceGraphic" in2="effect1_dropShadow_48_2979" result="shape"/>
</filter>
<linearGradient id="paint0_linear_48_2979" x1="287.922" y1="75.3735" x2="287.922" y2="522" gradientUnits="userSpaceOnUse">
<stop stop-color="#E2E27A"/>
<stop offset="1" stop-color="#E2E27A" stop-opacity="0"/>
</linearGradient>
</defs>
</svg>
