<svg width="24" height="24" viewBox="0 0 24 24" fill="none" xmlns="http://www.w3.org/2000/svg">
<path d="M11.5203 5.43184C12.1422 5.43184 12.6465 4.92758 12.6465 4.30559C12.6465 3.17348 13.5676 2.25251 14.6996 2.25251H17.88C18.502 2.25251 19.0062 1.74824 19.0062 1.12625C19.0062 0.504261 18.502 0 17.88 0H14.6996C12.3255 0 10.394 1.93145 10.394 4.30559C10.394 4.92743 10.8983 5.43184 11.5203 5.43184Z" fill="#0C1717"/>
<path d="M17.6385 8.95312H6.12039C5.4984 8.95312 4.99414 9.45739 4.99414 10.0794C4.99414 10.7014 5.4984 11.2056 6.12039 11.2056H10.3941V22.8729C10.3941 23.4949 10.8984 23.9991 11.5204 23.9991C12.1424 23.9991 12.6467 23.4949 12.6467 22.8729V11.2056H17.6387C18.2607 11.2056 18.7649 10.7014 18.7649 10.0794C18.7649 9.45739 18.2605 8.95312 17.6385 8.95312Z" fill="#0C1717"/>
</svg>
