<svg width="198" height="56" viewBox="0 0 198 56" fill="none" xmlns="http://www.w3.org/2000/svg">
<rect width="198" height="56" rx="28" fill="white"/>
<path d="M55.3744 24.1861C55.2653 24.2529 52.6672 25.6637 52.6672 28.7918C52.7897 32.3591 55.9459 33.6102 56 33.6102C55.9459 33.677 55.5235 35.3144 54.2724 37.0308C53.2795 38.5093 52.1775 40 50.504 40C48.9121 40 48.3407 39.0146 46.504 39.0146C44.5315 39.0146 43.9734 40 42.4631 40C40.7897 40 39.606 38.4295 38.559 36.9648C37.1987 35.0479 36.0425 32.0396 36.0017 29.1512C35.9742 27.6206 36.2741 26.116 37.0354 24.8381C38.11 23.054 40.0284 21.8429 42.1233 21.8029C43.7285 21.75 45.157 22.8812 46.1366 22.8812C47.0754 22.8812 48.8305 21.8029 50.8163 21.8029C51.6735 21.8038 53.9592 22.0564 55.3744 24.1861ZM46.0009 21.4973C45.7151 20.0996 46.504 18.7018 47.2387 17.8102C48.1774 16.7319 49.6601 16 50.9388 16C51.0204 17.3978 50.5031 18.7686 49.5785 19.767C48.7489 20.8453 47.3203 21.6571 46.0009 21.4973Z" fill="#0C1717"/>
<path d="M83.504 41L82.688 38.36H79.136L78.32 41H76.08L79.872 29.8H81.952L85.744 41H83.504ZM80.912 32.552L79.728 36.44H82.096L80.912 32.552ZM94.646 36.968C94.646 39.448 93.398 41.128 90.966 41.128C90.15 41.128 89.366 40.712 89.014 40.264V44.264H87.03V32.936H89.014V33.768C89.238 33.352 89.974 32.808 90.966 32.808C93.398 32.808 94.646 34.488 94.646 36.968ZM92.566 36.968C92.566 35.368 91.734 34.504 90.694 34.504C89.654 34.504 88.838 35.368 88.838 36.968C88.838 38.568 89.654 39.432 90.694 39.432C91.734 39.432 92.566 38.568 92.566 36.968ZM104.193 36.968C104.193 39.448 102.945 41.128 100.513 41.128C99.6969 41.128 98.9129 40.712 98.5609 40.264V44.264H96.5769V32.936H98.5609V33.768C98.7849 33.352 99.5209 32.808 100.513 32.808C102.945 32.808 104.193 34.488 104.193 36.968ZM102.113 36.968C102.113 35.368 101.281 34.504 100.241 34.504C99.2009 34.504 98.3849 35.368 98.3849 36.968C98.3849 38.568 99.2009 39.432 100.241 39.432C101.281 39.432 102.113 38.568 102.113 36.968ZM116.364 31.704L114.684 32.776C114.252 31.944 113.788 31.592 113.132 31.592C112.524 31.592 112.06 32.024 112.06 32.616C112.06 34.568 116.844 34.312 116.844 37.64C116.844 39.832 115.404 41.128 113.26 41.128C111.228 41.128 109.756 39.704 109.404 37.992L111.084 36.936C111.42 38.136 112.092 39.208 113.308 39.208C114.172 39.208 114.764 38.776 114.764 37.752C114.764 35.896 110.076 36.264 110.076 32.712C110.076 31.016 111.372 29.672 113.132 29.672C114.62 29.672 115.756 30.408 116.364 31.704ZM122.875 39.24L123.339 40.84C122.891 41.048 122.459 41.128 122.027 41.128C120.203 41.128 119.067 40.152 119.067 38.152V34.632H117.819V32.936H119.067V30.92L121.051 29.672V32.936H123.179V34.632H121.051V38.12C121.051 39.112 121.435 39.432 122.107 39.432C122.379 39.432 122.603 39.384 122.875 39.24ZM124.407 36.968C124.407 34.632 125.911 32.808 128.503 32.808C131.095 32.808 132.599 34.632 132.599 36.968C132.599 39.304 131.095 41.128 128.503 41.128C125.911 41.128 124.407 39.304 124.407 36.968ZM126.487 36.968C126.487 38.296 127.223 39.432 128.503 39.432C129.783 39.432 130.519 38.296 130.519 36.968C130.519 35.64 129.783 34.504 128.503 34.504C127.223 34.504 126.487 35.64 126.487 36.968ZM136.327 41H134.343V32.936H136.327V34.248C136.903 33.304 137.799 32.808 138.711 32.808C139.063 32.808 139.367 32.872 139.687 32.968L139.319 34.808C139.079 34.664 138.823 34.584 138.487 34.584C137.335 34.584 136.327 35.528 136.327 38.136V41ZM148.164 36.792V37.608H142.612C142.66 38.504 143.284 39.432 144.516 39.432C145.428 39.432 145.988 39.016 146.468 38.184L148.068 38.776C147.444 40.2 146.356 41.128 144.404 41.128C141.636 41.128 140.532 38.872 140.532 36.968C140.532 35.064 141.636 32.808 144.404 32.808C147.092 32.808 148.164 35.032 148.164 36.792ZM144.404 34.504C143.396 34.504 142.804 35.272 142.66 36.04H146.132C145.956 35.24 145.46 34.504 144.404 34.504Z" fill="#0C1717"/>
<path d="M77.696 22H76.2983L79.4389 13.2727H80.9602L84.1009 22H82.7031L80.2358 14.858H80.1676L77.696 22ZM77.9304 18.5824H82.4645V19.6903H77.9304V18.5824ZM90.038 15.4545L87.6644 22H86.3008L83.9229 15.4545H85.2908L86.9485 20.4915H87.0167L88.6701 15.4545H90.038ZM92.9528 22.1449C92.538 22.1449 92.163 22.0682 91.8278 21.9148C91.4925 21.7585 91.2269 21.5327 91.0309 21.2372C90.8377 20.9418 90.7411 20.5795 90.7411 20.1506C90.7411 19.7812 90.8121 19.4773 90.9542 19.2386C91.0962 19 91.288 18.8111 91.5295 18.6719C91.771 18.5327 92.0408 18.4276 92.3391 18.3565C92.6374 18.2855 92.9414 18.2315 93.2511 18.1946C93.6431 18.1491 93.9613 18.1122 94.2056 18.0838C94.4499 18.0526 94.6275 18.0028 94.7383 17.9347C94.8491 17.8665 94.9045 17.7557 94.9045 17.6023V17.5724C94.9045 17.2003 94.7994 16.9119 94.5891 16.7074C94.3817 16.5028 94.0721 16.4006 93.6602 16.4006C93.2312 16.4006 92.8931 16.4957 92.646 16.6861C92.4016 16.8736 92.2326 17.0824 92.1388 17.3125L90.9414 17.0398C91.0835 16.642 91.2908 16.321 91.5636 16.0767C91.8391 15.8295 92.1559 15.6506 92.5138 15.5398C92.8718 15.4261 93.2482 15.3693 93.6431 15.3693C93.9045 15.3693 94.1815 15.4006 94.4741 15.4631C94.7695 15.5227 95.0451 15.6335 95.3008 15.7955C95.5593 15.9574 95.771 16.1889 95.9357 16.4901C96.1005 16.7884 96.1829 17.1761 96.1829 17.6534V22H94.9386V21.1051H94.8874C94.805 21.2699 94.6815 21.4318 94.5167 21.5909C94.3519 21.75 94.1403 21.8821 93.8817 21.9872C93.6232 22.0923 93.3136 22.1449 92.9528 22.1449ZM93.2298 21.1222C93.582 21.1222 93.8832 21.0526 94.1332 20.9134C94.386 20.7741 94.5778 20.5923 94.7085 20.3679C94.842 20.1406 94.9087 19.8977 94.9087 19.6392V18.7955C94.8633 18.8409 94.7752 18.8835 94.6445 18.9233C94.5167 18.9602 94.3704 18.9929 94.2056 19.0213C94.0408 19.0469 93.8803 19.071 93.7241 19.0938C93.5678 19.1136 93.4371 19.1307 93.332 19.1449C93.0849 19.1761 92.859 19.2287 92.6545 19.3026C92.4528 19.3764 92.2908 19.483 92.1687 19.6222C92.0494 19.7585 91.9897 19.9403 91.9897 20.1676C91.9897 20.483 92.1062 20.7216 92.3391 20.8835C92.5721 21.0426 92.869 21.1222 93.2298 21.1222ZM97.88 22V15.4545H99.1541V22H97.88ZM98.5234 14.4446C98.3018 14.4446 98.1115 14.3707 97.9524 14.223C97.7962 14.0724 97.718 13.8935 97.718 13.6861C97.718 13.4759 97.7962 13.2969 97.9524 13.1491C98.1115 12.9986 98.3018 12.9233 98.5234 12.9233C98.745 12.9233 98.9339 12.9986 99.0902 13.1491C99.2493 13.2969 99.3288 13.4759 99.3288 13.6861C99.3288 13.8935 99.2493 14.0724 99.0902 14.223C98.9339 14.3707 98.745 14.4446 98.5234 14.4446ZM102.142 13.2727V22H100.868V13.2727H102.142ZM105.761 22.1449C105.347 22.1449 104.972 22.0682 104.636 21.9148C104.301 21.7585 104.036 21.5327 103.839 21.2372C103.646 20.9418 103.55 20.5795 103.55 20.1506C103.55 19.7812 103.621 19.4773 103.763 19.2386C103.905 19 104.097 18.8111 104.338 18.6719C104.58 18.5327 104.849 18.4276 105.148 18.3565C105.446 18.2855 105.75 18.2315 106.06 18.1946C106.452 18.1491 106.77 18.1122 107.014 18.0838C107.259 18.0526 107.436 18.0028 107.547 17.9347C107.658 17.8665 107.713 17.7557 107.713 17.6023V17.5724C107.713 17.2003 107.608 16.9119 107.398 16.7074C107.19 16.5028 106.881 16.4006 106.469 16.4006C106.04 16.4006 105.702 16.4957 105.455 16.6861C105.21 16.8736 105.041 17.0824 104.947 17.3125L103.75 17.0398C103.892 16.642 104.099 16.321 104.372 16.0767C104.648 15.8295 104.964 15.6506 105.322 15.5398C105.68 15.4261 106.057 15.3693 106.452 15.3693C106.713 15.3693 106.99 15.4006 107.283 15.4631C107.578 15.5227 107.854 15.6335 108.109 15.7955C108.368 15.9574 108.58 16.1889 108.744 16.4901C108.909 16.7884 108.991 17.1761 108.991 17.6534V22H107.747V21.1051H107.696C107.614 21.2699 107.49 21.4318 107.325 21.5909C107.161 21.75 106.949 21.8821 106.69 21.9872C106.432 22.0923 106.122 22.1449 105.761 22.1449ZM106.038 21.1222C106.391 21.1222 106.692 21.0526 106.942 20.9134C107.195 20.7741 107.386 20.5923 107.517 20.3679C107.651 20.1406 107.717 19.8977 107.717 19.6392V18.7955C107.672 18.8409 107.584 18.8835 107.453 18.9233C107.325 18.9602 107.179 18.9929 107.014 19.0213C106.849 19.0469 106.689 19.071 106.533 19.0938C106.376 19.1136 106.246 19.1307 106.141 19.1449C105.893 19.1761 105.668 19.2287 105.463 19.3026C105.261 19.3764 105.099 19.483 104.977 19.6222C104.858 19.7585 104.798 19.9403 104.798 20.1676C104.798 20.483 104.915 20.7216 105.148 20.8835C105.381 21.0426 105.678 21.1222 106.038 21.1222ZM110.791 22V13.2727H112.065V16.5156H112.142C112.216 16.3793 112.322 16.2216 112.461 16.0426C112.6 15.8636 112.794 15.7074 113.041 15.5739C113.288 15.4375 113.615 15.3693 114.021 15.3693C114.549 15.3693 115.021 15.5028 115.436 15.7699C115.85 16.0369 116.176 16.4219 116.412 16.9247C116.65 17.4276 116.77 18.0327 116.77 18.7401C116.77 19.4474 116.652 20.054 116.416 20.5597C116.18 21.0625 115.856 21.4503 115.444 21.723C115.032 21.9929 114.562 22.1278 114.034 22.1278C113.636 22.1278 113.311 22.0611 113.058 21.9276C112.808 21.794 112.612 21.6378 112.47 21.4588C112.328 21.2798 112.218 21.1207 112.142 20.9815H112.035V22H110.791ZM112.039 18.7273C112.039 19.1875 112.106 19.5909 112.24 19.9375C112.373 20.2841 112.566 20.5554 112.819 20.7514C113.072 20.9446 113.382 21.0412 113.748 21.0412C114.129 21.0412 114.447 20.9403 114.703 20.7386C114.958 20.5341 115.152 20.2571 115.282 19.9077C115.416 19.5582 115.483 19.1648 115.483 18.7273C115.483 18.2955 115.417 17.9077 115.287 17.5639C115.159 17.2202 114.966 16.9489 114.707 16.75C114.451 16.5511 114.132 16.4517 113.748 16.4517C113.379 16.4517 113.066 16.5469 112.811 16.7372C112.558 16.9276 112.366 17.1932 112.235 17.5341C112.105 17.875 112.039 18.2727 112.039 18.7273ZM119.474 13.2727V22H118.2V13.2727H119.474ZM124.01 22.1321C123.365 22.1321 122.809 21.9943 122.343 21.7188C121.88 21.4403 121.522 21.0497 121.27 20.5469C121.02 20.0412 120.895 19.4489 120.895 18.7699C120.895 18.0994 121.02 17.5085 121.27 16.9972C121.522 16.4858 121.875 16.0866 122.326 15.7997C122.781 15.5128 123.312 15.3693 123.92 15.3693C124.289 15.3693 124.647 15.4304 124.994 15.5526C125.341 15.6747 125.652 15.8665 125.927 16.1278C126.203 16.3892 126.42 16.7287 126.579 17.1463C126.738 17.5611 126.818 18.0653 126.818 18.6591V19.1108H121.615V18.1562H125.569C125.569 17.821 125.501 17.5241 125.365 17.2656C125.228 17.0043 125.037 16.7983 124.789 16.6477C124.545 16.4972 124.258 16.4219 123.929 16.4219C123.571 16.4219 123.258 16.5099 122.991 16.6861C122.727 16.8594 122.522 17.0866 122.377 17.3679C122.235 17.6463 122.164 17.9489 122.164 18.2756V19.0213C122.164 19.4588 122.241 19.831 122.395 20.1378C122.551 20.4446 122.768 20.679 123.047 20.8409C123.325 21 123.65 21.0795 124.022 21.0795C124.264 21.0795 124.484 21.0455 124.683 20.9773C124.882 20.9062 125.054 20.8011 125.199 20.6619C125.343 20.5227 125.454 20.3509 125.531 20.1463L126.737 20.3636C126.64 20.7187 126.467 21.0298 126.217 21.2969C125.97 21.5611 125.659 21.767 125.284 21.9148C124.912 22.0597 124.487 22.1321 124.01 22.1321ZM134.164 22.1321C133.551 22.1321 133.015 21.9915 132.558 21.7102C132.1 21.429 131.745 21.0355 131.493 20.5298C131.24 20.0241 131.113 19.4332 131.113 18.7571C131.113 18.0781 131.24 17.4844 131.493 16.9759C131.745 16.4673 132.1 16.0724 132.558 15.7912C133.015 15.5099 133.551 15.3693 134.164 15.3693C134.778 15.3693 135.314 15.5099 135.771 15.7912C136.228 16.0724 136.583 16.4673 136.836 16.9759C137.089 17.4844 137.216 18.0781 137.216 18.7571C137.216 19.4332 137.089 20.0241 136.836 20.5298C136.583 21.0355 136.228 21.429 135.771 21.7102C135.314 21.9915 134.778 22.1321 134.164 22.1321ZM134.169 21.0625C134.566 21.0625 134.896 20.9574 135.157 20.7472C135.419 20.5369 135.612 20.2571 135.737 19.9077C135.865 19.5582 135.929 19.1733 135.929 18.7528C135.929 18.3352 135.865 17.9517 135.737 17.6023C135.612 17.25 135.419 16.9673 135.157 16.7543C134.896 16.5412 134.566 16.4347 134.169 16.4347C133.768 16.4347 133.436 16.5412 133.172 16.7543C132.91 16.9673 132.716 17.25 132.588 17.6023C132.463 17.9517 132.4 18.3352 132.4 18.7528C132.4 19.1733 132.463 19.5582 132.588 19.9077C132.716 20.2571 132.91 20.5369 133.172 20.7472C133.436 20.9574 133.768 21.0625 134.169 21.0625ZM139.912 18.1136V22H138.638V15.4545H139.861V16.5199H139.942C140.092 16.1733 140.328 15.8949 140.649 15.6847C140.973 15.4744 141.381 15.3693 141.872 15.3693C142.318 15.3693 142.709 15.4631 143.044 15.6506C143.379 15.8352 143.639 16.1108 143.824 16.4773C144.009 16.8437 144.101 17.2969 144.101 17.8366V22H142.827V17.9901C142.827 17.5156 142.703 17.1449 142.456 16.8778C142.209 16.608 141.869 16.473 141.438 16.473C141.142 16.473 140.879 16.5369 140.649 16.6648C140.422 16.7926 140.241 16.9801 140.108 17.2273C139.977 17.4716 139.912 17.767 139.912 18.1136ZM152.041 15.4545V16.4773H148.466V15.4545H152.041ZM149.424 13.8864H150.699V20.0781C150.699 20.3253 150.735 20.5114 150.809 20.6364C150.883 20.7585 150.978 20.8423 151.095 20.8878C151.214 20.9304 151.343 20.9517 151.483 20.9517C151.585 20.9517 151.674 20.9446 151.751 20.9304C151.828 20.9162 151.887 20.9048 151.93 20.8963L152.16 21.9489C152.086 21.9773 151.981 22.0057 151.845 22.0341C151.708 22.0653 151.538 22.0824 151.333 22.0852C150.998 22.0909 150.686 22.0312 150.396 21.9062C150.106 21.7812 149.872 21.5881 149.693 21.3267C149.514 21.0653 149.424 20.7372 149.424 20.3423V13.8864ZM154.865 18.1136V22H153.591V13.2727H154.848V16.5199H154.929C155.082 16.1676 155.317 15.8878 155.632 15.6804C155.947 15.473 156.359 15.3693 156.868 15.3693C157.317 15.3693 157.709 15.4616 158.044 15.6463C158.382 15.831 158.643 16.1065 158.828 16.473C159.016 16.8366 159.109 17.2912 159.109 17.8366V22H157.835V17.9901C157.835 17.5099 157.712 17.1378 157.464 16.8736C157.217 16.6065 156.874 16.473 156.433 16.473C156.132 16.473 155.862 16.5369 155.624 16.6648C155.388 16.7926 155.202 16.9801 155.065 17.2273C154.932 17.4716 154.865 17.767 154.865 18.1136ZM163.631 22.1321C162.986 22.1321 162.43 21.9943 161.964 21.7188C161.501 21.4403 161.143 21.0497 160.891 20.5469C160.641 20.0412 160.516 19.4489 160.516 18.7699C160.516 18.0994 160.641 17.5085 160.891 16.9972C161.143 16.4858 161.496 16.0866 161.947 15.7997C162.402 15.5128 162.933 15.3693 163.541 15.3693C163.911 15.3693 164.268 15.4304 164.615 15.5526C164.962 15.6747 165.273 15.8665 165.548 16.1278C165.824 16.3892 166.041 16.7287 166.2 17.1463C166.359 17.5611 166.439 18.0653 166.439 18.6591V19.1108H161.236V18.1562H165.19C165.19 17.821 165.122 17.5241 164.986 17.2656C164.849 17.0043 164.658 16.7983 164.411 16.6477C164.166 16.4972 163.879 16.4219 163.55 16.4219C163.192 16.4219 162.879 16.5099 162.612 16.6861C162.348 16.8594 162.143 17.0866 161.999 17.3679C161.857 17.6463 161.786 17.9489 161.786 18.2756V19.0213C161.786 19.4588 161.862 19.831 162.016 20.1378C162.172 20.4446 162.389 20.679 162.668 20.8409C162.946 21 163.271 21.0795 163.643 21.0795C163.885 21.0795 164.105 21.0455 164.304 20.9773C164.503 20.9062 164.675 20.8011 164.82 20.6619C164.964 20.5227 165.075 20.3509 165.152 20.1463L166.358 20.3636C166.261 20.7187 166.088 21.0298 165.838 21.2969C165.591 21.5611 165.28 21.767 164.905 21.9148C164.533 22.0597 164.108 22.1321 163.631 22.1321Z" fill="#536666"/>
</svg>
