<svg width="48" height="49" viewBox="0 0 48 49" fill="none" xmlns="http://www.w3.org/2000/svg">
<path d="M15 33.5H33V31.9615H15V33.5ZM23.9269 26.9693L30.5193 20.4269L29.4193 19.3269L24.7077 24.0269V13.5H23.1693V24.0269L18.4962 19.3269L17.3962 20.4269L23.9269 26.9693ZM24.0067 42.5C21.5253 42.5 19.1954 42.0277 17.017 41.0831C14.8386 40.1384 12.9305 38.848 11.2929 37.212C9.65538 35.5759 8.36383 33.6697 7.4183 31.4933C6.47277 29.3169 6 26.9881 6 24.5067C6 22.0176 6.47232 19.6774 7.41695 17.4862C8.36162 15.295 9.65198 13.3889 11.2881 11.768C12.9241 10.1471 14.8303 8.86383 17.0067 7.9183C19.1831 6.97277 21.5119 6.5 23.9933 6.5C26.4824 6.5 28.8226 6.97232 31.0138 7.91695C33.205 8.86162 35.1111 10.1436 36.7321 11.763C38.353 13.3824 39.6362 15.2867 40.5817 17.4759C41.5272 19.6651 42 22.0042 42 24.4933C42 26.9747 41.5277 29.3046 40.5831 31.483C39.6384 33.6614 38.3564 35.5695 36.737 37.2071C35.1176 38.8446 33.2133 40.1362 31.0241 41.0817C28.8349 42.0272 26.4958 42.5 24.0067 42.5ZM24 40.9616C28.5795 40.9616 32.468 39.3609 35.6654 36.1596C38.8628 32.9583 40.4616 29.0718 40.4616 24.5C40.4616 19.9205 38.8628 16.032 35.6654 12.8346C32.468 9.63717 28.5795 8.03845 24 8.03845C19.4282 8.03845 15.5417 9.63717 12.3404 12.8346C9.1391 16.032 7.53845 19.9205 7.53845 24.5C7.53845 29.0718 9.1391 32.9583 12.3404 36.1596C15.5417 39.3609 19.4282 40.9616 24 40.9616Z" fill="#6ACFE6"/>
</svg>
