<svg width="180" height="36" viewBox="0 0 180 36" fill="none" xmlns="http://www.w3.org/2000/svg">
<rect y="1.8" width="32.4" height="32.4" rx="14.4" fill="#6ACFE6"/>
<path d="M10.35 14.0753L10.35 21.9247C10.35 25.2736 13.0102 27.45 16.2 27.45C19.3875 27.45 22.05 25.2737 22.05 21.9247L22.05 14.0753C22.05 10.7262 19.385 8.55 16.2 8.55C13.0102 8.55 10.35 10.7264 10.35 14.0753ZM19.3885 14.0753L19.3885 21.9247C19.3885 22.8286 19.0369 23.5192 18.4819 23.9906C17.9191 24.4687 17.1187 24.7438 16.2 24.7438C15.2803 24.7438 14.4787 24.4681 13.9149 23.9896C13.3589 23.5176 13.007 22.827 13.007 21.9247L13.007 14.0753C13.007 13.1717 13.359 12.4811 13.9148 12.0096C14.4785 11.5314 15.2801 11.2562 16.2 11.2562C17.1185 11.2562 17.9189 11.5318 18.4818 12.0102C19.037 12.4821 19.3885 13.1728 19.3885 14.0753Z" fill="#0C1717" stroke="#0C1717" stroke-width="0.9"/>
<path d="M52.65 28.27C47.016 28.27 44.199 25.309 44.199 19.387C44.199 16.201 44.91 13.897 46.332 12.475C47.754 11.053 49.86 10.342 52.65 10.342C55.44 10.342 57.546 11.053 58.968 12.475C60.39 13.897 61.101 16.201 61.101 19.387C61.101 25.309 58.284 28.27 52.65 28.27ZM52.65 25.165C54.288 25.165 55.485 24.697 56.241 23.761C57.015 22.807 57.402 21.349 57.402 19.387C57.402 17.209 57.015 15.679 56.241 14.797C55.485 13.897 54.288 13.447 52.65 13.447C51.012 13.447 49.806 13.897 49.032 14.797C48.276 15.679 47.898 17.209 47.898 19.387C47.898 21.349 48.276 22.807 49.032 23.761C49.806 24.697 51.012 25.165 52.65 25.165ZM63.6442 28V15.202H67.0192L67.1812 16.525C67.7572 16.165 68.4682 15.841 69.3142 15.553C70.1782 15.247 71.0242 15.04 71.8522 14.932V17.686C71.3662 17.758 70.8352 17.866 70.2592 18.01C69.6832 18.154 69.1342 18.316 68.6122 18.496C68.0902 18.676 67.6492 18.865 67.2892 19.063V28H63.6442ZM74.6075 12.853V9.991H78.5765V12.853H74.6075ZM74.9045 28V17.902H72.9875L73.3115 15.202H78.5495V28H74.9045ZM87.053 32.752C86.099 32.752 85.118 32.689 84.11 32.563C83.12 32.437 82.283 32.257 81.599 32.023V29.296C82.319 29.53 83.165 29.71 84.137 29.836C85.109 29.98 86.018 30.052 86.864 30.052C88.106 30.052 89.006 29.98 89.564 29.836C90.122 29.71 90.401 29.476 90.401 29.134C90.401 28.846 90.275 28.648 90.023 28.54C89.789 28.432 89.285 28.378 88.511 28.378H85.028C82.742 28.378 81.599 27.532 81.599 25.84C81.599 25.318 81.743 24.841 82.031 24.409C82.319 23.977 82.778 23.635 83.408 23.383C81.95 22.645 81.221 21.403 81.221 19.657C81.221 18.001 81.734 16.804 82.76 16.066C83.786 15.31 85.307 14.932 87.323 14.932C87.737 14.932 88.187 14.968 88.673 15.04C89.177 15.094 89.555 15.148 89.807 15.202H94.613L94.532 17.497H92.507C93.065 18.019 93.344 18.748 93.344 19.684C93.344 20.998 92.93 22.051 92.102 22.843C91.274 23.617 90.05 24.004 88.43 24.004C88.142 24.004 87.863 23.995 87.593 23.977C87.341 23.941 87.08 23.905 86.81 23.869C86.27 23.941 85.811 24.067 85.433 24.247C85.073 24.427 84.893 24.67 84.893 24.976C84.893 25.39 85.262 25.597 86 25.597H89.618C90.914 25.597 91.913 25.894 92.615 26.488C93.317 27.064 93.668 27.91 93.668 29.026C93.668 30.286 93.101 31.222 91.967 31.834C90.833 32.446 89.195 32.752 87.053 32.752ZM87.35 21.952C88.43 21.952 89.177 21.772 89.591 21.412C90.023 21.034 90.239 20.404 90.239 19.522C90.239 18.64 90.023 18.001 89.591 17.605C89.177 17.209 88.43 17.011 87.35 17.011C86.324 17.011 85.586 17.209 85.136 17.605C84.686 17.983 84.461 18.622 84.461 19.522C84.461 20.35 84.668 20.962 85.082 21.358C85.514 21.754 86.27 21.952 87.35 21.952ZM97.0196 12.853V9.991H100.989V12.853H97.0196ZM97.3166 28V17.902H95.3996L95.7236 15.202H100.962V28H97.3166ZM104.065 28V15.202H107.44L107.575 16.417C108.097 16.021 108.754 15.679 109.546 15.391C110.356 15.085 111.202 14.932 112.084 14.932C113.776 14.932 115.009 15.328 115.783 16.12C116.557 16.912 116.944 18.136 116.944 19.792V28H113.299V19.981C113.299 19.117 113.119 18.505 112.759 18.145C112.417 17.785 111.769 17.605 110.815 17.605C110.257 17.605 109.69 17.731 109.114 17.983C108.556 18.235 108.088 18.55 107.71 18.928V28H104.065ZM119.912 28V10.612H123.557V25.192H132.116V28H119.912ZM138.957 28.27C138.147 28.27 137.391 28.126 136.689 27.838C136.005 27.532 135.447 27.091 135.015 26.515C134.601 25.921 134.394 25.183 134.394 24.301C134.394 23.041 134.835 22.033 135.717 21.277C136.617 20.521 137.94 20.143 139.686 20.143H143.466V19.792C143.466 19 143.241 18.442 142.791 18.118C142.359 17.794 141.477 17.632 140.145 17.632C138.687 17.632 137.283 17.857 135.933 18.307V15.742C136.527 15.508 137.247 15.319 138.093 15.175C138.957 15.013 139.893 14.932 140.901 14.932C142.827 14.932 144.312 15.328 145.356 16.12C146.418 16.894 146.949 18.145 146.949 19.873V28H143.79L143.601 26.839C143.097 27.289 142.476 27.64 141.738 27.892C141 28.144 140.073 28.27 138.957 28.27ZM139.956 25.867C140.766 25.867 141.468 25.732 142.062 25.462C142.656 25.192 143.124 24.85 143.466 24.436V22.411H139.767C138.345 22.411 137.634 22.996 137.634 24.166C137.634 25.3 138.408 25.867 139.956 25.867ZM158.227 28.27C157.327 28.27 156.544 28.153 155.878 27.919C155.212 27.667 154.6 27.298 154.042 26.812L153.853 28H150.694V9.802H154.339V15.904C154.861 15.58 155.446 15.337 156.094 15.175C156.742 15.013 157.417 14.932 158.119 14.932C159.955 14.932 161.404 15.454 162.466 16.498C163.546 17.524 164.086 19.189 164.086 21.493C164.086 23.797 163.555 25.507 162.493 26.623C161.449 27.721 160.027 28.27 158.227 28.27ZM157.201 25.597C158.371 25.597 159.19 25.255 159.658 24.571C160.144 23.887 160.387 22.861 160.387 21.493C160.387 20.071 160.126 19.072 159.604 18.496C159.1 17.902 158.29 17.605 157.174 17.605C156.616 17.605 156.085 17.686 155.581 17.848C155.095 18.01 154.681 18.244 154.339 18.55V24.436C154.699 24.814 155.122 25.102 155.608 25.3C156.112 25.498 156.643 25.597 157.201 25.597ZM171.807 28.27C170.853 28.27 169.944 28.198 169.08 28.054C168.216 27.928 167.523 27.766 167.001 27.568V24.544C167.631 24.796 168.342 24.994 169.134 25.138C169.926 25.264 170.655 25.327 171.321 25.327C172.221 25.327 172.851 25.273 173.211 25.165C173.589 25.057 173.778 24.814 173.778 24.436C173.778 24.004 173.49 23.689 172.914 23.491C172.356 23.293 171.519 23.014 170.403 22.654C169.233 22.258 168.333 21.781 167.703 21.223C167.073 20.665 166.758 19.837 166.758 18.739C166.758 17.515 167.199 16.579 168.081 15.931C168.981 15.265 170.421 14.932 172.401 14.932C173.193 14.932 173.94 14.995 174.642 15.121C175.344 15.229 175.938 15.364 176.424 15.526V18.523C175.938 18.289 175.38 18.118 174.75 18.01C174.12 17.884 173.535 17.821 172.995 17.821C172.221 17.821 171.6 17.875 171.132 17.983C170.682 18.091 170.457 18.325 170.457 18.685C170.457 19.081 170.7 19.36 171.186 19.522C171.69 19.684 172.464 19.927 173.508 20.251C174.534 20.557 175.335 20.89 175.911 21.25C176.487 21.61 176.892 22.042 177.126 22.546C177.36 23.032 177.477 23.644 177.477 24.382C177.477 26.974 175.587 28.27 171.807 28.27Z" fill="white"/>
</svg>
